<mxfile host="app.diagrams.net" agent="Mozilla/5.0 (Windows NT 10.0; Win64; x64) AppleWebKit/537.36 (KHTML, like Gecko) Chrome/136.0.0.0 Safari/537.36" version="27.0.8">
  <diagram name="Página-1" id="SIS0WLoOTYgd5qj39C3Y">
    <mxGraphModel dx="925" dy="586" grid="1" gridSize="10" guides="1" tooltips="1" connect="1" arrows="1" fold="1" page="1" pageScale="1" pageWidth="827" pageHeight="1169" math="0" shadow="0">
      <root>
        <mxCell id="0" />
        <mxCell id="1" parent="0" />
        <mxCell id="rIWqH-wkm96xzd3Cp_YF-1" value="" style="childLayout=tableLayout;recursiveResize=0;shadow=0;fillColor=none;" vertex="1" parent="1">
          <mxGeometry x="80" y="70" width="1090" height="156" as="geometry" />
        </mxCell>
        <mxCell id="rIWqH-wkm96xzd3Cp_YF-43" style="shape=tableRow;horizontal=0;startSize=0;swimlaneHead=0;swimlaneBody=0;top=0;left=0;bottom=0;right=0;dropTarget=0;collapsible=0;recursiveResize=0;expand=0;fontStyle=0;fillColor=none;strokeColor=inherit;" vertex="1" parent="rIWqH-wkm96xzd3Cp_YF-1">
          <mxGeometry width="1090" height="30" as="geometry" />
        </mxCell>
        <mxCell id="rIWqH-wkm96xzd3Cp_YF-44" value="Nombre" style="connectable=0;recursiveResize=0;strokeColor=inherit;fillColor=none;align=center;whiteSpace=wrap;html=1;" vertex="1" parent="rIWqH-wkm96xzd3Cp_YF-43">
          <mxGeometry width="60" height="30" as="geometry">
            <mxRectangle width="60" height="30" as="alternateBounds" />
          </mxGeometry>
        </mxCell>
        <mxCell id="rIWqH-wkm96xzd3Cp_YF-45" value="vida" style="connectable=0;recursiveResize=0;strokeColor=inherit;fillColor=none;align=center;whiteSpace=wrap;html=1;" vertex="1" parent="rIWqH-wkm96xzd3Cp_YF-43">
          <mxGeometry x="60" width="60" height="30" as="geometry">
            <mxRectangle width="60" height="30" as="alternateBounds" />
          </mxGeometry>
        </mxCell>
        <mxCell id="rIWqH-wkm96xzd3Cp_YF-46" value="NombreBasico" style="connectable=0;recursiveResize=0;strokeColor=inherit;fillColor=none;align=center;whiteSpace=wrap;html=1;" vertex="1" parent="rIWqH-wkm96xzd3Cp_YF-43">
          <mxGeometry x="120" width="90" height="30" as="geometry">
            <mxRectangle width="90" height="30" as="alternateBounds" />
          </mxGeometry>
        </mxCell>
        <mxCell id="rIWqH-wkm96xzd3Cp_YF-55" value="DanoBasico" style="connectable=0;recursiveResize=0;strokeColor=inherit;fillColor=none;align=center;whiteSpace=wrap;html=1;" vertex="1" parent="rIWqH-wkm96xzd3Cp_YF-43">
          <mxGeometry x="210" width="70" height="30" as="geometry">
            <mxRectangle width="70" height="30" as="alternateBounds" />
          </mxGeometry>
        </mxCell>
        <mxCell id="rIWqH-wkm96xzd3Cp_YF-59" value="NombreFuerte" style="connectable=0;recursiveResize=0;strokeColor=inherit;fillColor=none;align=center;whiteSpace=wrap;html=1;" vertex="1" parent="rIWqH-wkm96xzd3Cp_YF-43">
          <mxGeometry x="280" width="90" height="30" as="geometry">
            <mxRectangle width="90" height="30" as="alternateBounds" />
          </mxGeometry>
        </mxCell>
        <mxCell id="rIWqH-wkm96xzd3Cp_YF-63" value="DanoFuerte" style="connectable=0;recursiveResize=0;strokeColor=inherit;fillColor=none;align=center;whiteSpace=wrap;html=1;" vertex="1" parent="rIWqH-wkm96xzd3Cp_YF-43">
          <mxGeometry x="370" width="70" height="30" as="geometry">
            <mxRectangle width="70" height="30" as="alternateBounds" />
          </mxGeometry>
        </mxCell>
        <mxCell id="rIWqH-wkm96xzd3Cp_YF-67" value="NombreHabilidad" style="connectable=0;recursiveResize=0;strokeColor=inherit;fillColor=none;align=center;whiteSpace=wrap;html=1;" vertex="1" parent="rIWqH-wkm96xzd3Cp_YF-43">
          <mxGeometry x="440" width="110" height="30" as="geometry">
            <mxRectangle width="110" height="30" as="alternateBounds" />
          </mxGeometry>
        </mxCell>
        <mxCell id="rIWqH-wkm96xzd3Cp_YF-71" value="DatosHabilidad" style="connectable=0;recursiveResize=0;strokeColor=inherit;fillColor=none;align=center;whiteSpace=wrap;html=1;" vertex="1" parent="rIWqH-wkm96xzd3Cp_YF-43">
          <mxGeometry x="550" width="90" height="30" as="geometry">
            <mxRectangle width="90" height="30" as="alternateBounds" />
          </mxGeometry>
        </mxCell>
        <mxCell id="rIWqH-wkm96xzd3Cp_YF-151" value="Final_1" style="connectable=0;recursiveResize=0;strokeColor=inherit;fillColor=none;align=center;whiteSpace=wrap;html=1;" vertex="1" parent="rIWqH-wkm96xzd3Cp_YF-43">
          <mxGeometry x="640" width="90" height="30" as="geometry">
            <mxRectangle width="90" height="30" as="alternateBounds" />
          </mxGeometry>
        </mxCell>
        <mxCell id="rIWqH-wkm96xzd3Cp_YF-155" value="Final_2" style="connectable=0;recursiveResize=0;strokeColor=inherit;fillColor=none;align=center;whiteSpace=wrap;html=1;" vertex="1" parent="rIWqH-wkm96xzd3Cp_YF-43">
          <mxGeometry x="730" width="90" height="30" as="geometry">
            <mxRectangle width="90" height="30" as="alternateBounds" />
          </mxGeometry>
        </mxCell>
        <mxCell id="rIWqH-wkm96xzd3Cp_YF-159" value="Final_3" style="connectable=0;recursiveResize=0;strokeColor=inherit;fillColor=none;align=center;whiteSpace=wrap;html=1;" vertex="1" parent="rIWqH-wkm96xzd3Cp_YF-43">
          <mxGeometry x="820" width="90" height="30" as="geometry">
            <mxRectangle width="90" height="30" as="alternateBounds" />
          </mxGeometry>
        </mxCell>
        <mxCell id="rIWqH-wkm96xzd3Cp_YF-163" value="Final_4" style="connectable=0;recursiveResize=0;strokeColor=inherit;fillColor=none;align=center;whiteSpace=wrap;html=1;" vertex="1" parent="rIWqH-wkm96xzd3Cp_YF-43">
          <mxGeometry x="910" width="90" height="30" as="geometry">
            <mxRectangle width="90" height="30" as="alternateBounds" />
          </mxGeometry>
        </mxCell>
        <mxCell id="rIWqH-wkm96xzd3Cp_YF-167" value="Final_5" style="connectable=0;recursiveResize=0;strokeColor=inherit;fillColor=none;align=center;whiteSpace=wrap;html=1;" vertex="1" parent="rIWqH-wkm96xzd3Cp_YF-43">
          <mxGeometry x="1000" width="90" height="30" as="geometry">
            <mxRectangle width="90" height="30" as="alternateBounds" />
          </mxGeometry>
        </mxCell>
        <mxCell id="rIWqH-wkm96xzd3Cp_YF-2" value="" style="shape=tableRow;horizontal=0;startSize=0;swimlaneHead=0;swimlaneBody=0;top=0;left=0;bottom=0;right=0;dropTarget=0;collapsible=0;recursiveResize=0;expand=0;fontStyle=0;fillColor=none;strokeColor=inherit;" vertex="1" parent="rIWqH-wkm96xzd3Cp_YF-1">
          <mxGeometry y="30" width="1090" height="33" as="geometry" />
        </mxCell>
        <mxCell id="rIWqH-wkm96xzd3Cp_YF-3" value="Ánuket" style="connectable=0;recursiveResize=0;strokeColor=inherit;fillColor=none;align=center;whiteSpace=wrap;html=1;" vertex="1" parent="rIWqH-wkm96xzd3Cp_YF-2">
          <mxGeometry width="60" height="33" as="geometry">
            <mxRectangle width="60" height="33" as="alternateBounds" />
          </mxGeometry>
        </mxCell>
        <mxCell id="rIWqH-wkm96xzd3Cp_YF-4" value="" style="connectable=0;recursiveResize=0;strokeColor=inherit;fillColor=none;align=center;whiteSpace=wrap;html=1;" vertex="1" parent="rIWqH-wkm96xzd3Cp_YF-2">
          <mxGeometry x="60" width="60" height="33" as="geometry">
            <mxRectangle width="60" height="33" as="alternateBounds" />
          </mxGeometry>
        </mxCell>
        <mxCell id="rIWqH-wkm96xzd3Cp_YF-5" value="" style="connectable=0;recursiveResize=0;strokeColor=inherit;fillColor=none;align=center;whiteSpace=wrap;html=1;" vertex="1" parent="rIWqH-wkm96xzd3Cp_YF-2">
          <mxGeometry x="120" width="90" height="33" as="geometry">
            <mxRectangle width="90" height="33" as="alternateBounds" />
          </mxGeometry>
        </mxCell>
        <mxCell id="rIWqH-wkm96xzd3Cp_YF-56" style="connectable=0;recursiveResize=0;strokeColor=inherit;fillColor=none;align=center;whiteSpace=wrap;html=1;" vertex="1" parent="rIWqH-wkm96xzd3Cp_YF-2">
          <mxGeometry x="210" width="70" height="33" as="geometry">
            <mxRectangle width="70" height="33" as="alternateBounds" />
          </mxGeometry>
        </mxCell>
        <mxCell id="rIWqH-wkm96xzd3Cp_YF-60" style="connectable=0;recursiveResize=0;strokeColor=inherit;fillColor=none;align=center;whiteSpace=wrap;html=1;" vertex="1" parent="rIWqH-wkm96xzd3Cp_YF-2">
          <mxGeometry x="280" width="90" height="33" as="geometry">
            <mxRectangle width="90" height="33" as="alternateBounds" />
          </mxGeometry>
        </mxCell>
        <mxCell id="rIWqH-wkm96xzd3Cp_YF-64" style="connectable=0;recursiveResize=0;strokeColor=inherit;fillColor=none;align=center;whiteSpace=wrap;html=1;" vertex="1" parent="rIWqH-wkm96xzd3Cp_YF-2">
          <mxGeometry x="370" width="70" height="33" as="geometry">
            <mxRectangle width="70" height="33" as="alternateBounds" />
          </mxGeometry>
        </mxCell>
        <mxCell id="rIWqH-wkm96xzd3Cp_YF-68" style="connectable=0;recursiveResize=0;strokeColor=inherit;fillColor=none;align=center;whiteSpace=wrap;html=1;" vertex="1" parent="rIWqH-wkm96xzd3Cp_YF-2">
          <mxGeometry x="440" width="110" height="33" as="geometry">
            <mxRectangle width="110" height="33" as="alternateBounds" />
          </mxGeometry>
        </mxCell>
        <mxCell id="rIWqH-wkm96xzd3Cp_YF-72" style="connectable=0;recursiveResize=0;strokeColor=inherit;fillColor=none;align=center;whiteSpace=wrap;html=1;" vertex="1" parent="rIWqH-wkm96xzd3Cp_YF-2">
          <mxGeometry x="550" width="90" height="33" as="geometry">
            <mxRectangle width="90" height="33" as="alternateBounds" />
          </mxGeometry>
        </mxCell>
        <mxCell id="rIWqH-wkm96xzd3Cp_YF-152" style="connectable=0;recursiveResize=0;strokeColor=inherit;fillColor=none;align=center;whiteSpace=wrap;html=1;" vertex="1" parent="rIWqH-wkm96xzd3Cp_YF-2">
          <mxGeometry x="640" width="90" height="33" as="geometry">
            <mxRectangle width="90" height="33" as="alternateBounds" />
          </mxGeometry>
        </mxCell>
        <mxCell id="rIWqH-wkm96xzd3Cp_YF-156" style="connectable=0;recursiveResize=0;strokeColor=inherit;fillColor=none;align=center;whiteSpace=wrap;html=1;" vertex="1" parent="rIWqH-wkm96xzd3Cp_YF-2">
          <mxGeometry x="730" width="90" height="33" as="geometry">
            <mxRectangle width="90" height="33" as="alternateBounds" />
          </mxGeometry>
        </mxCell>
        <mxCell id="rIWqH-wkm96xzd3Cp_YF-160" style="connectable=0;recursiveResize=0;strokeColor=inherit;fillColor=none;align=center;whiteSpace=wrap;html=1;" vertex="1" parent="rIWqH-wkm96xzd3Cp_YF-2">
          <mxGeometry x="820" width="90" height="33" as="geometry">
            <mxRectangle width="90" height="33" as="alternateBounds" />
          </mxGeometry>
        </mxCell>
        <mxCell id="rIWqH-wkm96xzd3Cp_YF-164" style="connectable=0;recursiveResize=0;strokeColor=inherit;fillColor=none;align=center;whiteSpace=wrap;html=1;" vertex="1" parent="rIWqH-wkm96xzd3Cp_YF-2">
          <mxGeometry x="910" width="90" height="33" as="geometry">
            <mxRectangle width="90" height="33" as="alternateBounds" />
          </mxGeometry>
        </mxCell>
        <mxCell id="rIWqH-wkm96xzd3Cp_YF-168" style="connectable=0;recursiveResize=0;strokeColor=inherit;fillColor=none;align=center;whiteSpace=wrap;html=1;" vertex="1" parent="rIWqH-wkm96xzd3Cp_YF-2">
          <mxGeometry x="1000" width="90" height="33" as="geometry">
            <mxRectangle width="90" height="33" as="alternateBounds" />
          </mxGeometry>
        </mxCell>
        <mxCell id="rIWqH-wkm96xzd3Cp_YF-6" style="shape=tableRow;horizontal=0;startSize=0;swimlaneHead=0;swimlaneBody=0;top=0;left=0;bottom=0;right=0;dropTarget=0;collapsible=0;recursiveResize=0;expand=0;fontStyle=0;fillColor=none;strokeColor=inherit;" vertex="1" parent="rIWqH-wkm96xzd3Cp_YF-1">
          <mxGeometry y="63" width="1090" height="46" as="geometry" />
        </mxCell>
        <mxCell id="rIWqH-wkm96xzd3Cp_YF-7" value="Bastet" style="connectable=0;recursiveResize=0;strokeColor=inherit;fillColor=none;align=center;whiteSpace=wrap;html=1;" vertex="1" parent="rIWqH-wkm96xzd3Cp_YF-6">
          <mxGeometry width="60" height="46" as="geometry">
            <mxRectangle width="60" height="46" as="alternateBounds" />
          </mxGeometry>
        </mxCell>
        <mxCell id="rIWqH-wkm96xzd3Cp_YF-8" value="" style="connectable=0;recursiveResize=0;strokeColor=inherit;fillColor=none;align=center;whiteSpace=wrap;html=1;" vertex="1" parent="rIWqH-wkm96xzd3Cp_YF-6">
          <mxGeometry x="60" width="60" height="46" as="geometry">
            <mxRectangle width="60" height="46" as="alternateBounds" />
          </mxGeometry>
        </mxCell>
        <mxCell id="rIWqH-wkm96xzd3Cp_YF-9" value="" style="connectable=0;recursiveResize=0;strokeColor=inherit;fillColor=none;align=center;whiteSpace=wrap;html=1;" vertex="1" parent="rIWqH-wkm96xzd3Cp_YF-6">
          <mxGeometry x="120" width="90" height="46" as="geometry">
            <mxRectangle width="90" height="46" as="alternateBounds" />
          </mxGeometry>
        </mxCell>
        <mxCell id="rIWqH-wkm96xzd3Cp_YF-57" style="connectable=0;recursiveResize=0;strokeColor=inherit;fillColor=none;align=center;whiteSpace=wrap;html=1;" vertex="1" parent="rIWqH-wkm96xzd3Cp_YF-6">
          <mxGeometry x="210" width="70" height="46" as="geometry">
            <mxRectangle width="70" height="46" as="alternateBounds" />
          </mxGeometry>
        </mxCell>
        <mxCell id="rIWqH-wkm96xzd3Cp_YF-61" style="connectable=0;recursiveResize=0;strokeColor=inherit;fillColor=none;align=center;whiteSpace=wrap;html=1;" vertex="1" parent="rIWqH-wkm96xzd3Cp_YF-6">
          <mxGeometry x="280" width="90" height="46" as="geometry">
            <mxRectangle width="90" height="46" as="alternateBounds" />
          </mxGeometry>
        </mxCell>
        <mxCell id="rIWqH-wkm96xzd3Cp_YF-65" style="connectable=0;recursiveResize=0;strokeColor=inherit;fillColor=none;align=center;whiteSpace=wrap;html=1;" vertex="1" parent="rIWqH-wkm96xzd3Cp_YF-6">
          <mxGeometry x="370" width="70" height="46" as="geometry">
            <mxRectangle width="70" height="46" as="alternateBounds" />
          </mxGeometry>
        </mxCell>
        <mxCell id="rIWqH-wkm96xzd3Cp_YF-69" style="connectable=0;recursiveResize=0;strokeColor=inherit;fillColor=none;align=center;whiteSpace=wrap;html=1;" vertex="1" parent="rIWqH-wkm96xzd3Cp_YF-6">
          <mxGeometry x="440" width="110" height="46" as="geometry">
            <mxRectangle width="110" height="46" as="alternateBounds" />
          </mxGeometry>
        </mxCell>
        <mxCell id="rIWqH-wkm96xzd3Cp_YF-73" style="connectable=0;recursiveResize=0;strokeColor=inherit;fillColor=none;align=center;whiteSpace=wrap;html=1;" vertex="1" parent="rIWqH-wkm96xzd3Cp_YF-6">
          <mxGeometry x="550" width="90" height="46" as="geometry">
            <mxRectangle width="90" height="46" as="alternateBounds" />
          </mxGeometry>
        </mxCell>
        <mxCell id="rIWqH-wkm96xzd3Cp_YF-153" style="connectable=0;recursiveResize=0;strokeColor=inherit;fillColor=none;align=center;whiteSpace=wrap;html=1;" vertex="1" parent="rIWqH-wkm96xzd3Cp_YF-6">
          <mxGeometry x="640" width="90" height="46" as="geometry">
            <mxRectangle width="90" height="46" as="alternateBounds" />
          </mxGeometry>
        </mxCell>
        <mxCell id="rIWqH-wkm96xzd3Cp_YF-157" style="connectable=0;recursiveResize=0;strokeColor=inherit;fillColor=none;align=center;whiteSpace=wrap;html=1;" vertex="1" parent="rIWqH-wkm96xzd3Cp_YF-6">
          <mxGeometry x="730" width="90" height="46" as="geometry">
            <mxRectangle width="90" height="46" as="alternateBounds" />
          </mxGeometry>
        </mxCell>
        <mxCell id="rIWqH-wkm96xzd3Cp_YF-161" style="connectable=0;recursiveResize=0;strokeColor=inherit;fillColor=none;align=center;whiteSpace=wrap;html=1;" vertex="1" parent="rIWqH-wkm96xzd3Cp_YF-6">
          <mxGeometry x="820" width="90" height="46" as="geometry">
            <mxRectangle width="90" height="46" as="alternateBounds" />
          </mxGeometry>
        </mxCell>
        <mxCell id="rIWqH-wkm96xzd3Cp_YF-165" style="connectable=0;recursiveResize=0;strokeColor=inherit;fillColor=none;align=center;whiteSpace=wrap;html=1;" vertex="1" parent="rIWqH-wkm96xzd3Cp_YF-6">
          <mxGeometry x="910" width="90" height="46" as="geometry">
            <mxRectangle width="90" height="46" as="alternateBounds" />
          </mxGeometry>
        </mxCell>
        <mxCell id="rIWqH-wkm96xzd3Cp_YF-169" style="connectable=0;recursiveResize=0;strokeColor=inherit;fillColor=none;align=center;whiteSpace=wrap;html=1;" vertex="1" parent="rIWqH-wkm96xzd3Cp_YF-6">
          <mxGeometry x="1000" width="90" height="46" as="geometry">
            <mxRectangle width="90" height="46" as="alternateBounds" />
          </mxGeometry>
        </mxCell>
        <mxCell id="rIWqH-wkm96xzd3Cp_YF-10" style="shape=tableRow;horizontal=0;startSize=0;swimlaneHead=0;swimlaneBody=0;top=0;left=0;bottom=0;right=0;dropTarget=0;collapsible=0;recursiveResize=0;expand=0;fontStyle=0;fillColor=none;strokeColor=inherit;" vertex="1" parent="rIWqH-wkm96xzd3Cp_YF-1">
          <mxGeometry y="109" width="1090" height="47" as="geometry" />
        </mxCell>
        <mxCell id="rIWqH-wkm96xzd3Cp_YF-11" value="Cambises" style="connectable=0;recursiveResize=0;strokeColor=inherit;fillColor=none;align=center;whiteSpace=wrap;html=1;" vertex="1" parent="rIWqH-wkm96xzd3Cp_YF-10">
          <mxGeometry width="60" height="47" as="geometry">
            <mxRectangle width="60" height="47" as="alternateBounds" />
          </mxGeometry>
        </mxCell>
        <mxCell id="rIWqH-wkm96xzd3Cp_YF-12" value="" style="connectable=0;recursiveResize=0;strokeColor=inherit;fillColor=none;align=center;whiteSpace=wrap;html=1;" vertex="1" parent="rIWqH-wkm96xzd3Cp_YF-10">
          <mxGeometry x="60" width="60" height="47" as="geometry">
            <mxRectangle width="60" height="47" as="alternateBounds" />
          </mxGeometry>
        </mxCell>
        <mxCell id="rIWqH-wkm96xzd3Cp_YF-13" value="" style="connectable=0;recursiveResize=0;strokeColor=inherit;fillColor=none;align=center;whiteSpace=wrap;html=1;" vertex="1" parent="rIWqH-wkm96xzd3Cp_YF-10">
          <mxGeometry x="120" width="90" height="47" as="geometry">
            <mxRectangle width="90" height="47" as="alternateBounds" />
          </mxGeometry>
        </mxCell>
        <mxCell id="rIWqH-wkm96xzd3Cp_YF-58" style="connectable=0;recursiveResize=0;strokeColor=inherit;fillColor=none;align=center;whiteSpace=wrap;html=1;" vertex="1" parent="rIWqH-wkm96xzd3Cp_YF-10">
          <mxGeometry x="210" width="70" height="47" as="geometry">
            <mxRectangle width="70" height="47" as="alternateBounds" />
          </mxGeometry>
        </mxCell>
        <mxCell id="rIWqH-wkm96xzd3Cp_YF-62" style="connectable=0;recursiveResize=0;strokeColor=inherit;fillColor=none;align=center;whiteSpace=wrap;html=1;" vertex="1" parent="rIWqH-wkm96xzd3Cp_YF-10">
          <mxGeometry x="280" width="90" height="47" as="geometry">
            <mxRectangle width="90" height="47" as="alternateBounds" />
          </mxGeometry>
        </mxCell>
        <mxCell id="rIWqH-wkm96xzd3Cp_YF-66" style="connectable=0;recursiveResize=0;strokeColor=inherit;fillColor=none;align=center;whiteSpace=wrap;html=1;" vertex="1" parent="rIWqH-wkm96xzd3Cp_YF-10">
          <mxGeometry x="370" width="70" height="47" as="geometry">
            <mxRectangle width="70" height="47" as="alternateBounds" />
          </mxGeometry>
        </mxCell>
        <mxCell id="rIWqH-wkm96xzd3Cp_YF-70" style="connectable=0;recursiveResize=0;strokeColor=inherit;fillColor=none;align=center;whiteSpace=wrap;html=1;" vertex="1" parent="rIWqH-wkm96xzd3Cp_YF-10">
          <mxGeometry x="440" width="110" height="47" as="geometry">
            <mxRectangle width="110" height="47" as="alternateBounds" />
          </mxGeometry>
        </mxCell>
        <mxCell id="rIWqH-wkm96xzd3Cp_YF-74" style="connectable=0;recursiveResize=0;strokeColor=inherit;fillColor=none;align=center;whiteSpace=wrap;html=1;" vertex="1" parent="rIWqH-wkm96xzd3Cp_YF-10">
          <mxGeometry x="550" width="90" height="47" as="geometry">
            <mxRectangle width="90" height="47" as="alternateBounds" />
          </mxGeometry>
        </mxCell>
        <mxCell id="rIWqH-wkm96xzd3Cp_YF-154" style="connectable=0;recursiveResize=0;strokeColor=inherit;fillColor=none;align=center;whiteSpace=wrap;html=1;" vertex="1" parent="rIWqH-wkm96xzd3Cp_YF-10">
          <mxGeometry x="640" width="90" height="47" as="geometry">
            <mxRectangle width="90" height="47" as="alternateBounds" />
          </mxGeometry>
        </mxCell>
        <mxCell id="rIWqH-wkm96xzd3Cp_YF-158" style="connectable=0;recursiveResize=0;strokeColor=inherit;fillColor=none;align=center;whiteSpace=wrap;html=1;" vertex="1" parent="rIWqH-wkm96xzd3Cp_YF-10">
          <mxGeometry x="730" width="90" height="47" as="geometry">
            <mxRectangle width="90" height="47" as="alternateBounds" />
          </mxGeometry>
        </mxCell>
        <mxCell id="rIWqH-wkm96xzd3Cp_YF-162" style="connectable=0;recursiveResize=0;strokeColor=inherit;fillColor=none;align=center;whiteSpace=wrap;html=1;" vertex="1" parent="rIWqH-wkm96xzd3Cp_YF-10">
          <mxGeometry x="820" width="90" height="47" as="geometry">
            <mxRectangle width="90" height="47" as="alternateBounds" />
          </mxGeometry>
        </mxCell>
        <mxCell id="rIWqH-wkm96xzd3Cp_YF-166" style="connectable=0;recursiveResize=0;strokeColor=inherit;fillColor=none;align=center;whiteSpace=wrap;html=1;" vertex="1" parent="rIWqH-wkm96xzd3Cp_YF-10">
          <mxGeometry x="910" width="90" height="47" as="geometry">
            <mxRectangle width="90" height="47" as="alternateBounds" />
          </mxGeometry>
        </mxCell>
        <mxCell id="rIWqH-wkm96xzd3Cp_YF-170" style="connectable=0;recursiveResize=0;strokeColor=inherit;fillColor=none;align=center;whiteSpace=wrap;html=1;" vertex="1" parent="rIWqH-wkm96xzd3Cp_YF-10">
          <mxGeometry x="1000" width="90" height="47" as="geometry">
            <mxRectangle width="90" height="47" as="alternateBounds" />
          </mxGeometry>
        </mxCell>
        <mxCell id="rIWqH-wkm96xzd3Cp_YF-14" value="Personajes" style="text;html=1;align=center;verticalAlign=middle;whiteSpace=wrap;rounded=0;" vertex="1" parent="1">
          <mxGeometry x="10" y="97" width="60" height="30" as="geometry" />
        </mxCell>
        <mxCell id="rIWqH-wkm96xzd3Cp_YF-15" value="Jugador" style="text;html=1;align=center;verticalAlign=middle;whiteSpace=wrap;rounded=0;" vertex="1" parent="1">
          <mxGeometry y="300" width="60" height="30" as="geometry" />
        </mxCell>
        <mxCell id="rIWqH-wkm96xzd3Cp_YF-16" value="Enemigos" style="text;html=1;align=center;verticalAlign=middle;whiteSpace=wrap;rounded=0;" vertex="1" parent="1">
          <mxGeometry y="455" width="60" height="30" as="geometry" />
        </mxCell>
        <mxCell id="rIWqH-wkm96xzd3Cp_YF-17" value="" style="childLayout=tableLayout;recursiveResize=0;shadow=0;fillColor=none;" vertex="1" parent="1">
          <mxGeometry x="80" y="250" width="240" height="93" as="geometry" />
        </mxCell>
        <mxCell id="rIWqH-wkm96xzd3Cp_YF-18" value="" style="shape=tableRow;horizontal=0;startSize=0;swimlaneHead=0;swimlaneBody=0;top=0;left=0;bottom=0;right=0;dropTarget=0;collapsible=0;recursiveResize=0;expand=0;fontStyle=0;fillColor=none;strokeColor=inherit;" vertex="1" parent="rIWqH-wkm96xzd3Cp_YF-17">
          <mxGeometry width="240" height="47" as="geometry" />
        </mxCell>
        <mxCell id="rIWqH-wkm96xzd3Cp_YF-19" value="id" style="connectable=0;recursiveResize=0;strokeColor=inherit;fillColor=none;align=center;whiteSpace=wrap;html=1;" vertex="1" parent="rIWqH-wkm96xzd3Cp_YF-18">
          <mxGeometry width="60" height="47" as="geometry">
            <mxRectangle width="60" height="47" as="alternateBounds" />
          </mxGeometry>
        </mxCell>
        <mxCell id="rIWqH-wkm96xzd3Cp_YF-20" value="Nombre" style="connectable=0;recursiveResize=0;strokeColor=inherit;fillColor=none;align=center;whiteSpace=wrap;html=1;" vertex="1" parent="rIWqH-wkm96xzd3Cp_YF-18">
          <mxGeometry x="60" width="60" height="47" as="geometry">
            <mxRectangle width="60" height="47" as="alternateBounds" />
          </mxGeometry>
        </mxCell>
        <mxCell id="rIWqH-wkm96xzd3Cp_YF-21" value="Contraseña" style="connectable=0;recursiveResize=0;strokeColor=inherit;fillColor=none;align=center;whiteSpace=wrap;html=1;" vertex="1" parent="rIWqH-wkm96xzd3Cp_YF-18">
          <mxGeometry x="120" width="60" height="47" as="geometry">
            <mxRectangle width="60" height="47" as="alternateBounds" />
          </mxGeometry>
        </mxCell>
        <mxCell id="rIWqH-wkm96xzd3Cp_YF-88" value="Puntos" style="connectable=0;recursiveResize=0;strokeColor=inherit;fillColor=none;align=center;whiteSpace=wrap;html=1;" vertex="1" parent="rIWqH-wkm96xzd3Cp_YF-18">
          <mxGeometry x="180" width="60" height="47" as="geometry">
            <mxRectangle width="60" height="47" as="alternateBounds" />
          </mxGeometry>
        </mxCell>
        <mxCell id="rIWqH-wkm96xzd3Cp_YF-22" style="shape=tableRow;horizontal=0;startSize=0;swimlaneHead=0;swimlaneBody=0;top=0;left=0;bottom=0;right=0;dropTarget=0;collapsible=0;recursiveResize=0;expand=0;fontStyle=0;fillColor=none;strokeColor=inherit;" vertex="1" parent="rIWqH-wkm96xzd3Cp_YF-17">
          <mxGeometry y="47" width="240" height="46" as="geometry" />
        </mxCell>
        <mxCell id="rIWqH-wkm96xzd3Cp_YF-23" value="" style="connectable=0;recursiveResize=0;strokeColor=inherit;fillColor=none;align=center;whiteSpace=wrap;html=1;" vertex="1" parent="rIWqH-wkm96xzd3Cp_YF-22">
          <mxGeometry width="60" height="46" as="geometry">
            <mxRectangle width="60" height="46" as="alternateBounds" />
          </mxGeometry>
        </mxCell>
        <mxCell id="rIWqH-wkm96xzd3Cp_YF-24" value="" style="connectable=0;recursiveResize=0;strokeColor=inherit;fillColor=none;align=center;whiteSpace=wrap;html=1;" vertex="1" parent="rIWqH-wkm96xzd3Cp_YF-22">
          <mxGeometry x="60" width="60" height="46" as="geometry">
            <mxRectangle width="60" height="46" as="alternateBounds" />
          </mxGeometry>
        </mxCell>
        <mxCell id="rIWqH-wkm96xzd3Cp_YF-25" value="" style="connectable=0;recursiveResize=0;strokeColor=inherit;fillColor=none;align=center;whiteSpace=wrap;html=1;" vertex="1" parent="rIWqH-wkm96xzd3Cp_YF-22">
          <mxGeometry x="120" width="60" height="46" as="geometry">
            <mxRectangle width="60" height="46" as="alternateBounds" />
          </mxGeometry>
        </mxCell>
        <mxCell id="rIWqH-wkm96xzd3Cp_YF-89" style="connectable=0;recursiveResize=0;strokeColor=inherit;fillColor=none;align=center;whiteSpace=wrap;html=1;" vertex="1" parent="rIWqH-wkm96xzd3Cp_YF-22">
          <mxGeometry x="180" width="60" height="46" as="geometry">
            <mxRectangle width="60" height="46" as="alternateBounds" />
          </mxGeometry>
        </mxCell>
        <mxCell id="rIWqH-wkm96xzd3Cp_YF-91" value="" style="childLayout=tableLayout;recursiveResize=0;shadow=0;fillColor=none;" vertex="1" parent="1">
          <mxGeometry x="80" y="422" width="700" height="63" as="geometry" />
        </mxCell>
        <mxCell id="rIWqH-wkm96xzd3Cp_YF-92" style="shape=tableRow;horizontal=0;startSize=0;swimlaneHead=0;swimlaneBody=0;top=0;left=0;bottom=0;right=0;dropTarget=0;collapsible=0;recursiveResize=0;expand=0;fontStyle=0;fillColor=none;strokeColor=inherit;" vertex="1" parent="rIWqH-wkm96xzd3Cp_YF-91">
          <mxGeometry width="700" height="30" as="geometry" />
        </mxCell>
        <mxCell id="rIWqH-wkm96xzd3Cp_YF-93" value="Nombre" style="connectable=0;recursiveResize=0;strokeColor=inherit;fillColor=none;align=center;whiteSpace=wrap;html=1;" vertex="1" parent="rIWqH-wkm96xzd3Cp_YF-92">
          <mxGeometry width="60" height="30" as="geometry">
            <mxRectangle width="60" height="30" as="alternateBounds" />
          </mxGeometry>
        </mxCell>
        <mxCell id="rIWqH-wkm96xzd3Cp_YF-175" value="Especie" style="connectable=0;recursiveResize=0;strokeColor=inherit;fillColor=none;align=center;whiteSpace=wrap;html=1;" vertex="1" parent="rIWqH-wkm96xzd3Cp_YF-92">
          <mxGeometry x="60" width="60" height="30" as="geometry">
            <mxRectangle width="60" height="30" as="alternateBounds" />
          </mxGeometry>
        </mxCell>
        <mxCell id="rIWqH-wkm96xzd3Cp_YF-94" value="vida" style="connectable=0;recursiveResize=0;strokeColor=inherit;fillColor=none;align=center;whiteSpace=wrap;html=1;" vertex="1" parent="rIWqH-wkm96xzd3Cp_YF-92">
          <mxGeometry x="120" width="60" height="30" as="geometry">
            <mxRectangle width="60" height="30" as="alternateBounds" />
          </mxGeometry>
        </mxCell>
        <mxCell id="rIWqH-wkm96xzd3Cp_YF-95" value="NombreBasico" style="connectable=0;recursiveResize=0;strokeColor=inherit;fillColor=none;align=center;whiteSpace=wrap;html=1;" vertex="1" parent="rIWqH-wkm96xzd3Cp_YF-92">
          <mxGeometry x="180" width="90" height="30" as="geometry">
            <mxRectangle width="90" height="30" as="alternateBounds" />
          </mxGeometry>
        </mxCell>
        <mxCell id="rIWqH-wkm96xzd3Cp_YF-96" value="DanoBasico" style="connectable=0;recursiveResize=0;strokeColor=inherit;fillColor=none;align=center;whiteSpace=wrap;html=1;" vertex="1" parent="rIWqH-wkm96xzd3Cp_YF-92">
          <mxGeometry x="270" width="70" height="30" as="geometry">
            <mxRectangle width="70" height="30" as="alternateBounds" />
          </mxGeometry>
        </mxCell>
        <mxCell id="rIWqH-wkm96xzd3Cp_YF-97" value="NombreFuerte" style="connectable=0;recursiveResize=0;strokeColor=inherit;fillColor=none;align=center;whiteSpace=wrap;html=1;" vertex="1" parent="rIWqH-wkm96xzd3Cp_YF-92">
          <mxGeometry x="340" width="90" height="30" as="geometry">
            <mxRectangle width="90" height="30" as="alternateBounds" />
          </mxGeometry>
        </mxCell>
        <mxCell id="rIWqH-wkm96xzd3Cp_YF-98" value="DanFuerte" style="connectable=0;recursiveResize=0;strokeColor=inherit;fillColor=none;align=center;whiteSpace=wrap;html=1;" vertex="1" parent="rIWqH-wkm96xzd3Cp_YF-92">
          <mxGeometry x="430" width="70" height="30" as="geometry">
            <mxRectangle width="70" height="30" as="alternateBounds" />
          </mxGeometry>
        </mxCell>
        <mxCell id="rIWqH-wkm96xzd3Cp_YF-99" value="NombreHabilidad" style="connectable=0;recursiveResize=0;strokeColor=inherit;fillColor=none;align=center;whiteSpace=wrap;html=1;" vertex="1" parent="rIWqH-wkm96xzd3Cp_YF-92">
          <mxGeometry x="500" width="110" height="30" as="geometry">
            <mxRectangle width="110" height="30" as="alternateBounds" />
          </mxGeometry>
        </mxCell>
        <mxCell id="rIWqH-wkm96xzd3Cp_YF-100" value="DatosHabilidad" style="connectable=0;recursiveResize=0;strokeColor=inherit;fillColor=none;align=center;whiteSpace=wrap;html=1;" vertex="1" parent="rIWqH-wkm96xzd3Cp_YF-92">
          <mxGeometry x="610" width="90" height="30" as="geometry">
            <mxRectangle width="90" height="30" as="alternateBounds" />
          </mxGeometry>
        </mxCell>
        <mxCell id="rIWqH-wkm96xzd3Cp_YF-101" value="" style="shape=tableRow;horizontal=0;startSize=0;swimlaneHead=0;swimlaneBody=0;top=0;left=0;bottom=0;right=0;dropTarget=0;collapsible=0;recursiveResize=0;expand=0;fontStyle=0;fillColor=none;strokeColor=inherit;" vertex="1" parent="rIWqH-wkm96xzd3Cp_YF-91">
          <mxGeometry y="30" width="700" height="33" as="geometry" />
        </mxCell>
        <mxCell id="rIWqH-wkm96xzd3Cp_YF-102" value="" style="connectable=0;recursiveResize=0;strokeColor=inherit;fillColor=none;align=center;whiteSpace=wrap;html=1;" vertex="1" parent="rIWqH-wkm96xzd3Cp_YF-101">
          <mxGeometry width="60" height="33" as="geometry">
            <mxRectangle width="60" height="33" as="alternateBounds" />
          </mxGeometry>
        </mxCell>
        <mxCell id="rIWqH-wkm96xzd3Cp_YF-176" style="connectable=0;recursiveResize=0;strokeColor=inherit;fillColor=none;align=center;whiteSpace=wrap;html=1;" vertex="1" parent="rIWqH-wkm96xzd3Cp_YF-101">
          <mxGeometry x="60" width="60" height="33" as="geometry">
            <mxRectangle width="60" height="33" as="alternateBounds" />
          </mxGeometry>
        </mxCell>
        <mxCell id="rIWqH-wkm96xzd3Cp_YF-103" value="" style="connectable=0;recursiveResize=0;strokeColor=inherit;fillColor=none;align=center;whiteSpace=wrap;html=1;" vertex="1" parent="rIWqH-wkm96xzd3Cp_YF-101">
          <mxGeometry x="120" width="60" height="33" as="geometry">
            <mxRectangle width="60" height="33" as="alternateBounds" />
          </mxGeometry>
        </mxCell>
        <mxCell id="rIWqH-wkm96xzd3Cp_YF-104" value="" style="connectable=0;recursiveResize=0;strokeColor=inherit;fillColor=none;align=center;whiteSpace=wrap;html=1;" vertex="1" parent="rIWqH-wkm96xzd3Cp_YF-101">
          <mxGeometry x="180" width="90" height="33" as="geometry">
            <mxRectangle width="90" height="33" as="alternateBounds" />
          </mxGeometry>
        </mxCell>
        <mxCell id="rIWqH-wkm96xzd3Cp_YF-105" style="connectable=0;recursiveResize=0;strokeColor=inherit;fillColor=none;align=center;whiteSpace=wrap;html=1;" vertex="1" parent="rIWqH-wkm96xzd3Cp_YF-101">
          <mxGeometry x="270" width="70" height="33" as="geometry">
            <mxRectangle width="70" height="33" as="alternateBounds" />
          </mxGeometry>
        </mxCell>
        <mxCell id="rIWqH-wkm96xzd3Cp_YF-106" style="connectable=0;recursiveResize=0;strokeColor=inherit;fillColor=none;align=center;whiteSpace=wrap;html=1;" vertex="1" parent="rIWqH-wkm96xzd3Cp_YF-101">
          <mxGeometry x="340" width="90" height="33" as="geometry">
            <mxRectangle width="90" height="33" as="alternateBounds" />
          </mxGeometry>
        </mxCell>
        <mxCell id="rIWqH-wkm96xzd3Cp_YF-107" style="connectable=0;recursiveResize=0;strokeColor=inherit;fillColor=none;align=center;whiteSpace=wrap;html=1;" vertex="1" parent="rIWqH-wkm96xzd3Cp_YF-101">
          <mxGeometry x="430" width="70" height="33" as="geometry">
            <mxRectangle width="70" height="33" as="alternateBounds" />
          </mxGeometry>
        </mxCell>
        <mxCell id="rIWqH-wkm96xzd3Cp_YF-108" style="connectable=0;recursiveResize=0;strokeColor=inherit;fillColor=none;align=center;whiteSpace=wrap;html=1;" vertex="1" parent="rIWqH-wkm96xzd3Cp_YF-101">
          <mxGeometry x="500" width="110" height="33" as="geometry">
            <mxRectangle width="110" height="33" as="alternateBounds" />
          </mxGeometry>
        </mxCell>
        <mxCell id="rIWqH-wkm96xzd3Cp_YF-109" style="connectable=0;recursiveResize=0;strokeColor=inherit;fillColor=none;align=center;whiteSpace=wrap;html=1;" vertex="1" parent="rIWqH-wkm96xzd3Cp_YF-101">
          <mxGeometry x="610" width="90" height="33" as="geometry">
            <mxRectangle width="90" height="33" as="alternateBounds" />
          </mxGeometry>
        </mxCell>
        <mxCell id="rIWqH-wkm96xzd3Cp_YF-128" value="NPC" style="text;html=1;align=center;verticalAlign=middle;whiteSpace=wrap;rounded=0;" vertex="1" parent="1">
          <mxGeometry x="10" y="640" width="60" height="30" as="geometry" />
        </mxCell>
        <mxCell id="rIWqH-wkm96xzd3Cp_YF-129" value="" style="childLayout=tableLayout;recursiveResize=0;shadow=0;fillColor=none;" vertex="1" parent="1">
          <mxGeometry x="80" y="610" width="360" height="93" as="geometry" />
        </mxCell>
        <mxCell id="rIWqH-wkm96xzd3Cp_YF-130" value="" style="shape=tableRow;horizontal=0;startSize=0;swimlaneHead=0;swimlaneBody=0;top=0;left=0;bottom=0;right=0;dropTarget=0;collapsible=0;recursiveResize=0;expand=0;fontStyle=0;fillColor=none;strokeColor=inherit;" vertex="1" parent="rIWqH-wkm96xzd3Cp_YF-129">
          <mxGeometry width="360" height="47" as="geometry" />
        </mxCell>
        <mxCell id="rIWqH-wkm96xzd3Cp_YF-131" value="Nombre" style="connectable=0;recursiveResize=0;strokeColor=inherit;fillColor=none;align=center;whiteSpace=wrap;html=1;" vertex="1" parent="rIWqH-wkm96xzd3Cp_YF-130">
          <mxGeometry width="60" height="47" as="geometry">
            <mxRectangle width="60" height="47" as="alternateBounds" />
          </mxGeometry>
        </mxCell>
        <mxCell id="rIWqH-wkm96xzd3Cp_YF-132" value="Especie" style="connectable=0;recursiveResize=0;strokeColor=inherit;fillColor=none;align=center;whiteSpace=wrap;html=1;" vertex="1" parent="rIWqH-wkm96xzd3Cp_YF-130">
          <mxGeometry x="60" width="60" height="47" as="geometry">
            <mxRectangle width="60" height="47" as="alternateBounds" />
          </mxGeometry>
        </mxCell>
        <mxCell id="rIWqH-wkm96xzd3Cp_YF-133" value="Frase_1" style="connectable=0;recursiveResize=0;strokeColor=inherit;fillColor=none;align=center;whiteSpace=wrap;html=1;" vertex="1" parent="rIWqH-wkm96xzd3Cp_YF-130">
          <mxGeometry x="120" width="60" height="47" as="geometry">
            <mxRectangle width="60" height="47" as="alternateBounds" />
          </mxGeometry>
        </mxCell>
        <mxCell id="rIWqH-wkm96xzd3Cp_YF-142" value="Frase_2" style="connectable=0;recursiveResize=0;strokeColor=inherit;fillColor=none;align=center;whiteSpace=wrap;html=1;" vertex="1" parent="rIWqH-wkm96xzd3Cp_YF-130">
          <mxGeometry x="180" width="60" height="47" as="geometry">
            <mxRectangle width="60" height="47" as="alternateBounds" />
          </mxGeometry>
        </mxCell>
        <mxCell id="rIWqH-wkm96xzd3Cp_YF-145" value="Frase_3" style="connectable=0;recursiveResize=0;strokeColor=inherit;fillColor=none;align=center;whiteSpace=wrap;html=1;" vertex="1" parent="rIWqH-wkm96xzd3Cp_YF-130">
          <mxGeometry x="240" width="60" height="47" as="geometry">
            <mxRectangle width="60" height="47" as="alternateBounds" />
          </mxGeometry>
        </mxCell>
        <mxCell id="rIWqH-wkm96xzd3Cp_YF-148" value="Ayuda" style="connectable=0;recursiveResize=0;strokeColor=inherit;fillColor=none;align=center;whiteSpace=wrap;html=1;" vertex="1" parent="rIWqH-wkm96xzd3Cp_YF-130">
          <mxGeometry x="300" width="60" height="47" as="geometry">
            <mxRectangle width="60" height="47" as="alternateBounds" />
          </mxGeometry>
        </mxCell>
        <mxCell id="rIWqH-wkm96xzd3Cp_YF-134" style="shape=tableRow;horizontal=0;startSize=0;swimlaneHead=0;swimlaneBody=0;top=0;left=0;bottom=0;right=0;dropTarget=0;collapsible=0;recursiveResize=0;expand=0;fontStyle=0;fillColor=none;strokeColor=inherit;" vertex="1" parent="rIWqH-wkm96xzd3Cp_YF-129">
          <mxGeometry y="47" width="360" height="46" as="geometry" />
        </mxCell>
        <mxCell id="rIWqH-wkm96xzd3Cp_YF-135" value="" style="connectable=0;recursiveResize=0;strokeColor=inherit;fillColor=none;align=center;whiteSpace=wrap;html=1;" vertex="1" parent="rIWqH-wkm96xzd3Cp_YF-134">
          <mxGeometry width="60" height="46" as="geometry">
            <mxRectangle width="60" height="46" as="alternateBounds" />
          </mxGeometry>
        </mxCell>
        <mxCell id="rIWqH-wkm96xzd3Cp_YF-136" value="" style="connectable=0;recursiveResize=0;strokeColor=inherit;fillColor=none;align=center;whiteSpace=wrap;html=1;" vertex="1" parent="rIWqH-wkm96xzd3Cp_YF-134">
          <mxGeometry x="60" width="60" height="46" as="geometry">
            <mxRectangle width="60" height="46" as="alternateBounds" />
          </mxGeometry>
        </mxCell>
        <mxCell id="rIWqH-wkm96xzd3Cp_YF-137" value="" style="connectable=0;recursiveResize=0;strokeColor=inherit;fillColor=none;align=center;whiteSpace=wrap;html=1;" vertex="1" parent="rIWqH-wkm96xzd3Cp_YF-134">
          <mxGeometry x="120" width="60" height="46" as="geometry">
            <mxRectangle width="60" height="46" as="alternateBounds" />
          </mxGeometry>
        </mxCell>
        <mxCell id="rIWqH-wkm96xzd3Cp_YF-143" style="connectable=0;recursiveResize=0;strokeColor=inherit;fillColor=none;align=center;whiteSpace=wrap;html=1;" vertex="1" parent="rIWqH-wkm96xzd3Cp_YF-134">
          <mxGeometry x="180" width="60" height="46" as="geometry">
            <mxRectangle width="60" height="46" as="alternateBounds" />
          </mxGeometry>
        </mxCell>
        <mxCell id="rIWqH-wkm96xzd3Cp_YF-146" style="connectable=0;recursiveResize=0;strokeColor=inherit;fillColor=none;align=center;whiteSpace=wrap;html=1;" vertex="1" parent="rIWqH-wkm96xzd3Cp_YF-134">
          <mxGeometry x="240" width="60" height="46" as="geometry">
            <mxRectangle width="60" height="46" as="alternateBounds" />
          </mxGeometry>
        </mxCell>
        <mxCell id="rIWqH-wkm96xzd3Cp_YF-149" style="connectable=0;recursiveResize=0;strokeColor=inherit;fillColor=none;align=center;whiteSpace=wrap;html=1;" vertex="1" parent="rIWqH-wkm96xzd3Cp_YF-134">
          <mxGeometry x="300" width="60" height="46" as="geometry">
            <mxRectangle width="60" height="46" as="alternateBounds" />
          </mxGeometry>
        </mxCell>
        <mxCell id="rIWqH-wkm96xzd3Cp_YF-179" value="NombreBasico" style="connectable=0;recursiveResize=0;strokeColor=inherit;fillColor=none;align=center;whiteSpace=wrap;html=1;" vertex="1" parent="1">
          <mxGeometry x="80" y="760" width="90" height="30" as="geometry">
            <mxRectangle width="90" height="30" as="alternateBounds" />
          </mxGeometry>
        </mxCell>
        <mxCell id="rIWqH-wkm96xzd3Cp_YF-180" value="DanoBasico" style="connectable=0;recursiveResize=0;strokeColor=inherit;fillColor=none;align=center;whiteSpace=wrap;html=1;" vertex="1" parent="1">
          <mxGeometry x="170" y="760" width="70" height="30" as="geometry">
            <mxRectangle width="70" height="30" as="alternateBounds" />
          </mxGeometry>
        </mxCell>
        <mxCell id="rIWqH-wkm96xzd3Cp_YF-181" value="NombreFuerte" style="connectable=0;recursiveResize=0;strokeColor=inherit;fillColor=none;align=center;whiteSpace=wrap;html=1;" vertex="1" parent="1">
          <mxGeometry x="240" y="760" width="90" height="30" as="geometry">
            <mxRectangle width="90" height="30" as="alternateBounds" />
          </mxGeometry>
        </mxCell>
        <mxCell id="rIWqH-wkm96xzd3Cp_YF-182" value="DanFuerte" style="connectable=0;recursiveResize=0;strokeColor=inherit;fillColor=none;align=center;whiteSpace=wrap;html=1;" vertex="1" parent="1">
          <mxGeometry x="330" y="760" width="70" height="30" as="geometry">
            <mxRectangle width="70" height="30" as="alternateBounds" />
          </mxGeometry>
        </mxCell>
        <mxCell id="rIWqH-wkm96xzd3Cp_YF-183" value="NombreHabilidad" style="connectable=0;recursiveResize=0;strokeColor=inherit;fillColor=none;align=center;whiteSpace=wrap;html=1;" vertex="1" parent="1">
          <mxGeometry x="400" y="760" width="110" height="30" as="geometry">
            <mxRectangle width="110" height="30" as="alternateBounds" />
          </mxGeometry>
        </mxCell>
        <mxCell id="rIWqH-wkm96xzd3Cp_YF-184" value="DatosHabilidad" style="connectable=0;recursiveResize=0;strokeColor=inherit;fillColor=none;align=center;whiteSpace=wrap;html=1;" vertex="1" parent="1">
          <mxGeometry x="510" y="760" width="90" height="30" as="geometry">
            <mxRectangle width="90" height="30" as="alternateBounds" />
          </mxGeometry>
        </mxCell>
        <mxCell id="rIWqH-wkm96xzd3Cp_YF-185" value="" style="connectable=0;recursiveResize=0;strokeColor=inherit;fillColor=none;align=center;whiteSpace=wrap;html=1;" vertex="1" parent="1">
          <mxGeometry x="80" y="790" width="90" height="33" as="geometry">
            <mxRectangle width="90" height="33" as="alternateBounds" />
          </mxGeometry>
        </mxCell>
        <mxCell id="rIWqH-wkm96xzd3Cp_YF-186" style="connectable=0;recursiveResize=0;strokeColor=inherit;fillColor=none;align=center;whiteSpace=wrap;html=1;" vertex="1" parent="1">
          <mxGeometry x="170" y="790" width="70" height="33" as="geometry">
            <mxRectangle width="70" height="33" as="alternateBounds" />
          </mxGeometry>
        </mxCell>
        <mxCell id="rIWqH-wkm96xzd3Cp_YF-187" style="connectable=0;recursiveResize=0;strokeColor=inherit;fillColor=none;align=center;whiteSpace=wrap;html=1;" vertex="1" parent="1">
          <mxGeometry x="240" y="790" width="90" height="33" as="geometry">
            <mxRectangle width="90" height="33" as="alternateBounds" />
          </mxGeometry>
        </mxCell>
        <mxCell id="rIWqH-wkm96xzd3Cp_YF-188" style="connectable=0;recursiveResize=0;strokeColor=inherit;fillColor=none;align=center;whiteSpace=wrap;html=1;" vertex="1" parent="1">
          <mxGeometry x="330" y="790" width="70" height="33" as="geometry">
            <mxRectangle width="70" height="33" as="alternateBounds" />
          </mxGeometry>
        </mxCell>
        <mxCell id="rIWqH-wkm96xzd3Cp_YF-189" style="connectable=0;recursiveResize=0;strokeColor=inherit;fillColor=none;align=center;whiteSpace=wrap;html=1;" vertex="1" parent="1">
          <mxGeometry x="400" y="790" width="110" height="33" as="geometry">
            <mxRectangle width="110" height="33" as="alternateBounds" />
          </mxGeometry>
        </mxCell>
        <mxCell id="rIWqH-wkm96xzd3Cp_YF-190" style="connectable=0;recursiveResize=0;strokeColor=inherit;fillColor=none;align=center;whiteSpace=wrap;html=1;" vertex="1" parent="1">
          <mxGeometry x="510" y="790" width="90" height="33" as="geometry">
            <mxRectangle width="90" height="33" as="alternateBounds" />
          </mxGeometry>
        </mxCell>
        <mxCell id="rIWqH-wkm96xzd3Cp_YF-204" value="Ataques" style="text;html=1;align=center;verticalAlign=middle;whiteSpace=wrap;rounded=0;" vertex="1" parent="1">
          <mxGeometry x="10" y="770" width="60" height="30" as="geometry" />
        </mxCell>
        <mxCell id="rIWqH-wkm96xzd3Cp_YF-205" value="Puzzles" style="text;html=1;align=center;verticalAlign=middle;whiteSpace=wrap;rounded=0;" vertex="1" parent="1">
          <mxGeometry x="10" y="871.5" width="60" height="30" as="geometry" />
        </mxCell>
        <mxCell id="rIWqH-wkm96xzd3Cp_YF-206" value="" style="childLayout=tableLayout;recursiveResize=0;shadow=0;fillColor=none;" vertex="1" parent="1">
          <mxGeometry x="100" y="860" width="230" height="53" as="geometry" />
        </mxCell>
        <mxCell id="rIWqH-wkm96xzd3Cp_YF-207" value="" style="shape=tableRow;horizontal=0;startSize=0;swimlaneHead=0;swimlaneBody=0;top=0;left=0;bottom=0;right=0;dropTarget=0;collapsible=0;recursiveResize=0;expand=0;fontStyle=0;fillColor=none;strokeColor=inherit;" vertex="1" parent="rIWqH-wkm96xzd3Cp_YF-206">
          <mxGeometry width="230" height="27" as="geometry" />
        </mxCell>
        <mxCell id="rIWqH-wkm96xzd3Cp_YF-208" value="Nombre" style="connectable=0;recursiveResize=0;strokeColor=inherit;fillColor=none;align=center;whiteSpace=wrap;html=1;" vertex="1" parent="rIWqH-wkm96xzd3Cp_YF-207">
          <mxGeometry width="76" height="27" as="geometry">
            <mxRectangle width="76" height="27" as="alternateBounds" />
          </mxGeometry>
        </mxCell>
        <mxCell id="rIWqH-wkm96xzd3Cp_YF-209" value="Descripcion" style="connectable=0;recursiveResize=0;strokeColor=inherit;fillColor=none;align=center;whiteSpace=wrap;html=1;" vertex="1" parent="rIWqH-wkm96xzd3Cp_YF-207">
          <mxGeometry x="76" width="90" height="27" as="geometry">
            <mxRectangle width="90" height="27" as="alternateBounds" />
          </mxGeometry>
        </mxCell>
        <mxCell id="rIWqH-wkm96xzd3Cp_YF-210" value="Puntos" style="connectable=0;recursiveResize=0;strokeColor=inherit;fillColor=none;align=center;whiteSpace=wrap;html=1;" vertex="1" parent="rIWqH-wkm96xzd3Cp_YF-207">
          <mxGeometry x="166" width="64" height="27" as="geometry">
            <mxRectangle width="64" height="27" as="alternateBounds" />
          </mxGeometry>
        </mxCell>
        <mxCell id="rIWqH-wkm96xzd3Cp_YF-211" style="shape=tableRow;horizontal=0;startSize=0;swimlaneHead=0;swimlaneBody=0;top=0;left=0;bottom=0;right=0;dropTarget=0;collapsible=0;recursiveResize=0;expand=0;fontStyle=0;fillColor=none;strokeColor=inherit;" vertex="1" parent="rIWqH-wkm96xzd3Cp_YF-206">
          <mxGeometry y="27" width="230" height="26" as="geometry" />
        </mxCell>
        <mxCell id="rIWqH-wkm96xzd3Cp_YF-212" value="" style="connectable=0;recursiveResize=0;strokeColor=inherit;fillColor=none;align=center;whiteSpace=wrap;html=1;" vertex="1" parent="rIWqH-wkm96xzd3Cp_YF-211">
          <mxGeometry width="76" height="26" as="geometry">
            <mxRectangle width="76" height="26" as="alternateBounds" />
          </mxGeometry>
        </mxCell>
        <mxCell id="rIWqH-wkm96xzd3Cp_YF-213" value="" style="connectable=0;recursiveResize=0;strokeColor=inherit;fillColor=none;align=center;whiteSpace=wrap;html=1;" vertex="1" parent="rIWqH-wkm96xzd3Cp_YF-211">
          <mxGeometry x="76" width="90" height="26" as="geometry">
            <mxRectangle width="90" height="26" as="alternateBounds" />
          </mxGeometry>
        </mxCell>
        <mxCell id="rIWqH-wkm96xzd3Cp_YF-214" value="" style="connectable=0;recursiveResize=0;strokeColor=inherit;fillColor=none;align=center;whiteSpace=wrap;html=1;" vertex="1" parent="rIWqH-wkm96xzd3Cp_YF-211">
          <mxGeometry x="166" width="64" height="26" as="geometry">
            <mxRectangle width="64" height="26" as="alternateBounds" />
          </mxGeometry>
        </mxCell>
        <mxCell id="rIWqH-wkm96xzd3Cp_YF-219" value="Escenarios" style="text;html=1;align=center;verticalAlign=middle;whiteSpace=wrap;rounded=0;" vertex="1" parent="1">
          <mxGeometry x="950" y="375" width="60" height="30" as="geometry" />
        </mxCell>
        <mxCell id="rIWqH-wkm96xzd3Cp_YF-220" value="" style="childLayout=tableLayout;recursiveResize=0;shadow=0;fillColor=none;" vertex="1" parent="1">
          <mxGeometry x="1050" y="320" width="500" height="93" as="geometry" />
        </mxCell>
        <mxCell id="rIWqH-wkm96xzd3Cp_YF-221" value="" style="shape=tableRow;horizontal=0;startSize=0;swimlaneHead=0;swimlaneBody=0;top=0;left=0;bottom=0;right=0;dropTarget=0;collapsible=0;recursiveResize=0;expand=0;fontStyle=0;fillColor=none;strokeColor=inherit;" vertex="1" parent="rIWqH-wkm96xzd3Cp_YF-220">
          <mxGeometry width="500" height="47" as="geometry" />
        </mxCell>
        <mxCell id="rIWqH-wkm96xzd3Cp_YF-222" value="Nombre" style="connectable=0;recursiveResize=0;strokeColor=inherit;fillColor=none;align=center;whiteSpace=wrap;html=1;" vertex="1" parent="rIWqH-wkm96xzd3Cp_YF-221">
          <mxGeometry width="60" height="47" as="geometry">
            <mxRectangle width="60" height="47" as="alternateBounds" />
          </mxGeometry>
        </mxCell>
        <mxCell id="rIWqH-wkm96xzd3Cp_YF-223" value="NombreBatalla" style="connectable=0;recursiveResize=0;strokeColor=inherit;fillColor=none;align=center;whiteSpace=wrap;html=1;" vertex="1" parent="rIWqH-wkm96xzd3Cp_YF-221">
          <mxGeometry x="60" width="80" height="47" as="geometry">
            <mxRectangle width="80" height="47" as="alternateBounds" />
          </mxGeometry>
        </mxCell>
        <mxCell id="rIWqH-wkm96xzd3Cp_YF-224" value="NombrePuzzle" style="connectable=0;recursiveResize=0;strokeColor=inherit;fillColor=none;align=center;whiteSpace=wrap;html=1;" vertex="1" parent="rIWqH-wkm96xzd3Cp_YF-221">
          <mxGeometry x="140" width="90" height="47" as="geometry">
            <mxRectangle width="90" height="47" as="alternateBounds" />
          </mxGeometry>
        </mxCell>
        <mxCell id="rIWqH-wkm96xzd3Cp_YF-239" value="Terreno" style="connectable=0;recursiveResize=0;strokeColor=inherit;fillColor=none;align=center;whiteSpace=wrap;html=1;" vertex="1" parent="rIWqH-wkm96xzd3Cp_YF-221">
          <mxGeometry x="230" width="90" height="47" as="geometry">
            <mxRectangle width="90" height="47" as="alternateBounds" />
          </mxGeometry>
        </mxCell>
        <mxCell id="rIWqH-wkm96xzd3Cp_YF-236" value="Clima" style="connectable=0;recursiveResize=0;strokeColor=inherit;fillColor=none;align=center;whiteSpace=wrap;html=1;" vertex="1" parent="rIWqH-wkm96xzd3Cp_YF-221">
          <mxGeometry x="320" width="90" height="47" as="geometry">
            <mxRectangle width="90" height="47" as="alternateBounds" />
          </mxGeometry>
        </mxCell>
        <mxCell id="rIWqH-wkm96xzd3Cp_YF-233" value="Hora del día" style="connectable=0;recursiveResize=0;strokeColor=inherit;fillColor=none;align=center;whiteSpace=wrap;html=1;" vertex="1" parent="rIWqH-wkm96xzd3Cp_YF-221">
          <mxGeometry x="410" width="90" height="47" as="geometry">
            <mxRectangle width="90" height="47" as="alternateBounds" />
          </mxGeometry>
        </mxCell>
        <mxCell id="rIWqH-wkm96xzd3Cp_YF-225" style="shape=tableRow;horizontal=0;startSize=0;swimlaneHead=0;swimlaneBody=0;top=0;left=0;bottom=0;right=0;dropTarget=0;collapsible=0;recursiveResize=0;expand=0;fontStyle=0;fillColor=none;strokeColor=inherit;" vertex="1" parent="rIWqH-wkm96xzd3Cp_YF-220">
          <mxGeometry y="47" width="500" height="46" as="geometry" />
        </mxCell>
        <mxCell id="rIWqH-wkm96xzd3Cp_YF-226" value="" style="connectable=0;recursiveResize=0;strokeColor=inherit;fillColor=none;align=center;whiteSpace=wrap;html=1;" vertex="1" parent="rIWqH-wkm96xzd3Cp_YF-225">
          <mxGeometry width="60" height="46" as="geometry">
            <mxRectangle width="60" height="46" as="alternateBounds" />
          </mxGeometry>
        </mxCell>
        <mxCell id="rIWqH-wkm96xzd3Cp_YF-227" value="" style="connectable=0;recursiveResize=0;strokeColor=inherit;fillColor=none;align=center;whiteSpace=wrap;html=1;" vertex="1" parent="rIWqH-wkm96xzd3Cp_YF-225">
          <mxGeometry x="60" width="80" height="46" as="geometry">
            <mxRectangle width="80" height="46" as="alternateBounds" />
          </mxGeometry>
        </mxCell>
        <mxCell id="rIWqH-wkm96xzd3Cp_YF-228" value="" style="connectable=0;recursiveResize=0;strokeColor=inherit;fillColor=none;align=center;whiteSpace=wrap;html=1;" vertex="1" parent="rIWqH-wkm96xzd3Cp_YF-225">
          <mxGeometry x="140" width="90" height="46" as="geometry">
            <mxRectangle width="90" height="46" as="alternateBounds" />
          </mxGeometry>
        </mxCell>
        <mxCell id="rIWqH-wkm96xzd3Cp_YF-240" style="connectable=0;recursiveResize=0;strokeColor=inherit;fillColor=none;align=center;whiteSpace=wrap;html=1;" vertex="1" parent="rIWqH-wkm96xzd3Cp_YF-225">
          <mxGeometry x="230" width="90" height="46" as="geometry">
            <mxRectangle width="90" height="46" as="alternateBounds" />
          </mxGeometry>
        </mxCell>
        <mxCell id="rIWqH-wkm96xzd3Cp_YF-237" style="connectable=0;recursiveResize=0;strokeColor=inherit;fillColor=none;align=center;whiteSpace=wrap;html=1;" vertex="1" parent="rIWqH-wkm96xzd3Cp_YF-225">
          <mxGeometry x="320" width="90" height="46" as="geometry">
            <mxRectangle width="90" height="46" as="alternateBounds" />
          </mxGeometry>
        </mxCell>
        <mxCell id="rIWqH-wkm96xzd3Cp_YF-234" style="connectable=0;recursiveResize=0;strokeColor=inherit;fillColor=none;align=center;whiteSpace=wrap;html=1;" vertex="1" parent="rIWqH-wkm96xzd3Cp_YF-225">
          <mxGeometry x="410" width="90" height="46" as="geometry">
            <mxRectangle width="90" height="46" as="alternateBounds" />
          </mxGeometry>
        </mxCell>
        <mxCell id="rIWqH-wkm96xzd3Cp_YF-242" value="" style="childLayout=tableLayout;recursiveResize=0;shadow=0;fillColor=none;" vertex="1" parent="1">
          <mxGeometry x="1050" y="509" width="230" height="80" as="geometry" />
        </mxCell>
        <mxCell id="rIWqH-wkm96xzd3Cp_YF-243" value="" style="shape=tableRow;horizontal=0;startSize=0;swimlaneHead=0;swimlaneBody=0;top=0;left=0;bottom=0;right=0;dropTarget=0;collapsible=0;recursiveResize=0;expand=0;fontStyle=0;fillColor=none;strokeColor=inherit;" vertex="1" parent="rIWqH-wkm96xzd3Cp_YF-242">
          <mxGeometry width="230" height="27" as="geometry" />
        </mxCell>
        <mxCell id="rIWqH-wkm96xzd3Cp_YF-244" value="Nombre" style="connectable=0;recursiveResize=0;strokeColor=inherit;fillColor=none;align=center;whiteSpace=wrap;html=1;" vertex="1" parent="rIWqH-wkm96xzd3Cp_YF-243">
          <mxGeometry width="76" height="27" as="geometry">
            <mxRectangle width="76" height="27" as="alternateBounds" />
          </mxGeometry>
        </mxCell>
        <mxCell id="rIWqH-wkm96xzd3Cp_YF-245" value="Escenario" style="connectable=0;recursiveResize=0;strokeColor=inherit;fillColor=none;align=center;whiteSpace=wrap;html=1;" vertex="1" parent="rIWqH-wkm96xzd3Cp_YF-243">
          <mxGeometry x="76" width="90" height="27" as="geometry">
            <mxRectangle width="90" height="27" as="alternateBounds" />
          </mxGeometry>
        </mxCell>
        <mxCell id="rIWqH-wkm96xzd3Cp_YF-246" value="Enemigo" style="connectable=0;recursiveResize=0;strokeColor=inherit;fillColor=none;align=center;whiteSpace=wrap;html=1;" vertex="1" parent="rIWqH-wkm96xzd3Cp_YF-243">
          <mxGeometry x="166" width="64" height="27" as="geometry">
            <mxRectangle width="64" height="27" as="alternateBounds" />
          </mxGeometry>
        </mxCell>
        <mxCell id="rIWqH-wkm96xzd3Cp_YF-247" style="shape=tableRow;horizontal=0;startSize=0;swimlaneHead=0;swimlaneBody=0;top=0;left=0;bottom=0;right=0;dropTarget=0;collapsible=0;recursiveResize=0;expand=0;fontStyle=0;fillColor=none;strokeColor=inherit;" vertex="1" parent="rIWqH-wkm96xzd3Cp_YF-242">
          <mxGeometry y="27" width="230" height="26" as="geometry" />
        </mxCell>
        <mxCell id="rIWqH-wkm96xzd3Cp_YF-248" value="" style="connectable=0;recursiveResize=0;strokeColor=inherit;fillColor=none;align=center;whiteSpace=wrap;html=1;" vertex="1" parent="rIWqH-wkm96xzd3Cp_YF-247">
          <mxGeometry width="76" height="26" as="geometry">
            <mxRectangle width="76" height="26" as="alternateBounds" />
          </mxGeometry>
        </mxCell>
        <mxCell id="rIWqH-wkm96xzd3Cp_YF-249" value="" style="connectable=0;recursiveResize=0;strokeColor=inherit;fillColor=none;align=center;whiteSpace=wrap;html=1;" vertex="1" parent="rIWqH-wkm96xzd3Cp_YF-247">
          <mxGeometry x="76" width="90" height="26" as="geometry">
            <mxRectangle width="90" height="26" as="alternateBounds" />
          </mxGeometry>
        </mxCell>
        <mxCell id="rIWqH-wkm96xzd3Cp_YF-250" value="" style="connectable=0;recursiveResize=0;strokeColor=inherit;fillColor=none;align=center;whiteSpace=wrap;html=1;" vertex="1" parent="rIWqH-wkm96xzd3Cp_YF-247">
          <mxGeometry x="166" width="64" height="26" as="geometry">
            <mxRectangle width="64" height="26" as="alternateBounds" />
          </mxGeometry>
        </mxCell>
        <mxCell id="rIWqH-wkm96xzd3Cp_YF-251" style="shape=tableRow;horizontal=0;startSize=0;swimlaneHead=0;swimlaneBody=0;top=0;left=0;bottom=0;right=0;dropTarget=0;collapsible=0;recursiveResize=0;expand=0;fontStyle=0;fillColor=none;strokeColor=inherit;" vertex="1" parent="rIWqH-wkm96xzd3Cp_YF-242">
          <mxGeometry y="53" width="230" height="27" as="geometry" />
        </mxCell>
        <mxCell id="rIWqH-wkm96xzd3Cp_YF-252" value="" style="connectable=0;recursiveResize=0;strokeColor=inherit;fillColor=none;align=center;whiteSpace=wrap;html=1;" vertex="1" parent="rIWqH-wkm96xzd3Cp_YF-251">
          <mxGeometry width="76" height="27" as="geometry">
            <mxRectangle width="76" height="27" as="alternateBounds" />
          </mxGeometry>
        </mxCell>
        <mxCell id="rIWqH-wkm96xzd3Cp_YF-253" value="" style="connectable=0;recursiveResize=0;strokeColor=inherit;fillColor=none;align=center;whiteSpace=wrap;html=1;" vertex="1" parent="rIWqH-wkm96xzd3Cp_YF-251">
          <mxGeometry x="76" width="90" height="27" as="geometry">
            <mxRectangle width="90" height="27" as="alternateBounds" />
          </mxGeometry>
        </mxCell>
        <mxCell id="rIWqH-wkm96xzd3Cp_YF-254" value="" style="connectable=0;recursiveResize=0;strokeColor=inherit;fillColor=none;align=center;whiteSpace=wrap;html=1;" vertex="1" parent="rIWqH-wkm96xzd3Cp_YF-251">
          <mxGeometry x="166" width="64" height="27" as="geometry">
            <mxRectangle width="64" height="27" as="alternateBounds" />
          </mxGeometry>
        </mxCell>
        <mxCell id="rIWqH-wkm96xzd3Cp_YF-255" value="Batallas" style="text;html=1;align=center;verticalAlign=middle;whiteSpace=wrap;rounded=0;" vertex="1" parent="1">
          <mxGeometry x="950" y="534" width="60" height="30" as="geometry" />
        </mxCell>
        <mxCell id="rIWqH-wkm96xzd3Cp_YF-269" value="" style="childLayout=tableLayout;recursiveResize=0;shadow=0;fillColor=none;" vertex="1" parent="1">
          <mxGeometry x="1050" y="620" width="250" height="107" as="geometry" />
        </mxCell>
        <mxCell id="rIWqH-wkm96xzd3Cp_YF-270" value="" style="shape=tableRow;horizontal=0;startSize=0;swimlaneHead=0;swimlaneBody=0;top=0;left=0;bottom=0;right=0;dropTarget=0;collapsible=0;recursiveResize=0;expand=0;fontStyle=0;fillColor=none;strokeColor=inherit;" vertex="1" parent="rIWqH-wkm96xzd3Cp_YF-269">
          <mxGeometry width="250" height="27" as="geometry" />
        </mxCell>
        <mxCell id="rIWqH-wkm96xzd3Cp_YF-271" value="Nombre" style="connectable=0;recursiveResize=0;strokeColor=inherit;fillColor=none;align=center;whiteSpace=wrap;html=1;" vertex="1" parent="rIWqH-wkm96xzd3Cp_YF-270">
          <mxGeometry width="76" height="27" as="geometry">
            <mxRectangle width="76" height="27" as="alternateBounds" />
          </mxGeometry>
        </mxCell>
        <mxCell id="rIWqH-wkm96xzd3Cp_YF-272" value="Buff" style="connectable=0;recursiveResize=0;strokeColor=inherit;fillColor=none;align=center;whiteSpace=wrap;html=1;" vertex="1" parent="rIWqH-wkm96xzd3Cp_YF-270">
          <mxGeometry x="76" width="90" height="27" as="geometry">
            <mxRectangle width="90" height="27" as="alternateBounds" />
          </mxGeometry>
        </mxCell>
        <mxCell id="rIWqH-wkm96xzd3Cp_YF-273" value="Penalización" style="connectable=0;recursiveResize=0;strokeColor=inherit;fillColor=none;align=center;whiteSpace=wrap;html=1;" vertex="1" parent="rIWqH-wkm96xzd3Cp_YF-270">
          <mxGeometry x="166" width="84" height="27" as="geometry">
            <mxRectangle width="84" height="27" as="alternateBounds" />
          </mxGeometry>
        </mxCell>
        <mxCell id="rIWqH-wkm96xzd3Cp_YF-274" style="shape=tableRow;horizontal=0;startSize=0;swimlaneHead=0;swimlaneBody=0;top=0;left=0;bottom=0;right=0;dropTarget=0;collapsible=0;recursiveResize=0;expand=0;fontStyle=0;fillColor=none;strokeColor=inherit;" vertex="1" parent="rIWqH-wkm96xzd3Cp_YF-269">
          <mxGeometry y="27" width="250" height="26" as="geometry" />
        </mxCell>
        <mxCell id="rIWqH-wkm96xzd3Cp_YF-275" value="Arena" style="connectable=0;recursiveResize=0;strokeColor=inherit;fillColor=none;align=center;whiteSpace=wrap;html=1;" vertex="1" parent="rIWqH-wkm96xzd3Cp_YF-274">
          <mxGeometry width="76" height="26" as="geometry">
            <mxRectangle width="76" height="26" as="alternateBounds" />
          </mxGeometry>
        </mxCell>
        <mxCell id="rIWqH-wkm96xzd3Cp_YF-276" value="" style="connectable=0;recursiveResize=0;strokeColor=inherit;fillColor=none;align=center;whiteSpace=wrap;html=1;" vertex="1" parent="rIWqH-wkm96xzd3Cp_YF-274">
          <mxGeometry x="76" width="90" height="26" as="geometry">
            <mxRectangle width="90" height="26" as="alternateBounds" />
          </mxGeometry>
        </mxCell>
        <mxCell id="rIWqH-wkm96xzd3Cp_YF-277" value="" style="connectable=0;recursiveResize=0;strokeColor=inherit;fillColor=none;align=center;whiteSpace=wrap;html=1;" vertex="1" parent="rIWqH-wkm96xzd3Cp_YF-274">
          <mxGeometry x="166" width="84" height="26" as="geometry">
            <mxRectangle width="84" height="26" as="alternateBounds" />
          </mxGeometry>
        </mxCell>
        <mxCell id="rIWqH-wkm96xzd3Cp_YF-278" style="shape=tableRow;horizontal=0;startSize=0;swimlaneHead=0;swimlaneBody=0;top=0;left=0;bottom=0;right=0;dropTarget=0;collapsible=0;recursiveResize=0;expand=0;fontStyle=0;fillColor=none;strokeColor=inherit;" vertex="1" parent="rIWqH-wkm96xzd3Cp_YF-269">
          <mxGeometry y="53" width="250" height="27" as="geometry" />
        </mxCell>
        <mxCell id="rIWqH-wkm96xzd3Cp_YF-279" value="Suelo firme" style="connectable=0;recursiveResize=0;strokeColor=inherit;fillColor=none;align=center;whiteSpace=wrap;html=1;" vertex="1" parent="rIWqH-wkm96xzd3Cp_YF-278">
          <mxGeometry width="76" height="27" as="geometry">
            <mxRectangle width="76" height="27" as="alternateBounds" />
          </mxGeometry>
        </mxCell>
        <mxCell id="rIWqH-wkm96xzd3Cp_YF-280" value="" style="connectable=0;recursiveResize=0;strokeColor=inherit;fillColor=none;align=center;whiteSpace=wrap;html=1;" vertex="1" parent="rIWqH-wkm96xzd3Cp_YF-278">
          <mxGeometry x="76" width="90" height="27" as="geometry">
            <mxRectangle width="90" height="27" as="alternateBounds" />
          </mxGeometry>
        </mxCell>
        <mxCell id="rIWqH-wkm96xzd3Cp_YF-281" value="" style="connectable=0;recursiveResize=0;strokeColor=inherit;fillColor=none;align=center;whiteSpace=wrap;html=1;" vertex="1" parent="rIWqH-wkm96xzd3Cp_YF-278">
          <mxGeometry x="166" width="84" height="27" as="geometry">
            <mxRectangle width="84" height="27" as="alternateBounds" />
          </mxGeometry>
        </mxCell>
        <mxCell id="rIWqH-wkm96xzd3Cp_YF-343" style="shape=tableRow;horizontal=0;startSize=0;swimlaneHead=0;swimlaneBody=0;top=0;left=0;bottom=0;right=0;dropTarget=0;collapsible=0;recursiveResize=0;expand=0;fontStyle=0;fillColor=none;strokeColor=inherit;" vertex="1" parent="rIWqH-wkm96xzd3Cp_YF-269">
          <mxGeometry y="80" width="250" height="27" as="geometry" />
        </mxCell>
        <mxCell id="rIWqH-wkm96xzd3Cp_YF-344" value="Trampas" style="connectable=0;recursiveResize=0;strokeColor=inherit;fillColor=none;align=center;whiteSpace=wrap;html=1;" vertex="1" parent="rIWqH-wkm96xzd3Cp_YF-343">
          <mxGeometry width="76" height="27" as="geometry">
            <mxRectangle width="76" height="27" as="alternateBounds" />
          </mxGeometry>
        </mxCell>
        <mxCell id="rIWqH-wkm96xzd3Cp_YF-345" style="connectable=0;recursiveResize=0;strokeColor=inherit;fillColor=none;align=center;whiteSpace=wrap;html=1;" vertex="1" parent="rIWqH-wkm96xzd3Cp_YF-343">
          <mxGeometry x="76" width="90" height="27" as="geometry">
            <mxRectangle width="90" height="27" as="alternateBounds" />
          </mxGeometry>
        </mxCell>
        <mxCell id="rIWqH-wkm96xzd3Cp_YF-346" style="connectable=0;recursiveResize=0;strokeColor=inherit;fillColor=none;align=center;whiteSpace=wrap;html=1;" vertex="1" parent="rIWqH-wkm96xzd3Cp_YF-343">
          <mxGeometry x="166" width="84" height="27" as="geometry">
            <mxRectangle width="84" height="27" as="alternateBounds" />
          </mxGeometry>
        </mxCell>
        <mxCell id="rIWqH-wkm96xzd3Cp_YF-282" value="Terrenos" style="text;html=1;align=center;verticalAlign=middle;whiteSpace=wrap;rounded=0;" vertex="1" parent="1">
          <mxGeometry x="950" y="653" width="60" height="30" as="geometry" />
        </mxCell>
        <mxCell id="rIWqH-wkm96xzd3Cp_YF-283" value="" style="childLayout=tableLayout;recursiveResize=0;shadow=0;fillColor=none;" vertex="1" parent="1">
          <mxGeometry x="1050" y="760" width="250" height="134" as="geometry" />
        </mxCell>
        <mxCell id="rIWqH-wkm96xzd3Cp_YF-284" value="" style="shape=tableRow;horizontal=0;startSize=0;swimlaneHead=0;swimlaneBody=0;top=0;left=0;bottom=0;right=0;dropTarget=0;collapsible=0;recursiveResize=0;expand=0;fontStyle=0;fillColor=none;strokeColor=inherit;" vertex="1" parent="rIWqH-wkm96xzd3Cp_YF-283">
          <mxGeometry width="250" height="27" as="geometry" />
        </mxCell>
        <mxCell id="rIWqH-wkm96xzd3Cp_YF-285" value="Nombre" style="connectable=0;recursiveResize=0;strokeColor=inherit;fillColor=none;align=center;whiteSpace=wrap;html=1;" vertex="1" parent="rIWqH-wkm96xzd3Cp_YF-284">
          <mxGeometry width="110" height="27" as="geometry">
            <mxRectangle width="110" height="27" as="alternateBounds" />
          </mxGeometry>
        </mxCell>
        <mxCell id="rIWqH-wkm96xzd3Cp_YF-286" value="Buff" style="connectable=0;recursiveResize=0;strokeColor=inherit;fillColor=none;align=center;whiteSpace=wrap;html=1;" vertex="1" parent="rIWqH-wkm96xzd3Cp_YF-284">
          <mxGeometry x="110" width="56" height="27" as="geometry">
            <mxRectangle width="56" height="27" as="alternateBounds" />
          </mxGeometry>
        </mxCell>
        <mxCell id="rIWqH-wkm96xzd3Cp_YF-287" value="Penalización" style="connectable=0;recursiveResize=0;strokeColor=inherit;fillColor=none;align=center;whiteSpace=wrap;html=1;" vertex="1" parent="rIWqH-wkm96xzd3Cp_YF-284">
          <mxGeometry x="166" width="84" height="27" as="geometry">
            <mxRectangle width="84" height="27" as="alternateBounds" />
          </mxGeometry>
        </mxCell>
        <mxCell id="rIWqH-wkm96xzd3Cp_YF-288" style="shape=tableRow;horizontal=0;startSize=0;swimlaneHead=0;swimlaneBody=0;top=0;left=0;bottom=0;right=0;dropTarget=0;collapsible=0;recursiveResize=0;expand=0;fontStyle=0;fillColor=none;strokeColor=inherit;" vertex="1" parent="rIWqH-wkm96xzd3Cp_YF-283">
          <mxGeometry y="27" width="250" height="26" as="geometry" />
        </mxCell>
        <mxCell id="rIWqH-wkm96xzd3Cp_YF-289" value="Nublado" style="connectable=0;recursiveResize=0;strokeColor=inherit;fillColor=none;align=center;whiteSpace=wrap;html=1;" vertex="1" parent="rIWqH-wkm96xzd3Cp_YF-288">
          <mxGeometry width="110" height="26" as="geometry">
            <mxRectangle width="110" height="26" as="alternateBounds" />
          </mxGeometry>
        </mxCell>
        <mxCell id="rIWqH-wkm96xzd3Cp_YF-290" value="" style="connectable=0;recursiveResize=0;strokeColor=inherit;fillColor=none;align=center;whiteSpace=wrap;html=1;" vertex="1" parent="rIWqH-wkm96xzd3Cp_YF-288">
          <mxGeometry x="110" width="56" height="26" as="geometry">
            <mxRectangle width="56" height="26" as="alternateBounds" />
          </mxGeometry>
        </mxCell>
        <mxCell id="rIWqH-wkm96xzd3Cp_YF-291" value="" style="connectable=0;recursiveResize=0;strokeColor=inherit;fillColor=none;align=center;whiteSpace=wrap;html=1;" vertex="1" parent="rIWqH-wkm96xzd3Cp_YF-288">
          <mxGeometry x="166" width="84" height="26" as="geometry">
            <mxRectangle width="84" height="26" as="alternateBounds" />
          </mxGeometry>
        </mxCell>
        <mxCell id="rIWqH-wkm96xzd3Cp_YF-292" style="shape=tableRow;horizontal=0;startSize=0;swimlaneHead=0;swimlaneBody=0;top=0;left=0;bottom=0;right=0;dropTarget=0;collapsible=0;recursiveResize=0;expand=0;fontStyle=0;fillColor=none;strokeColor=inherit;" vertex="1" parent="rIWqH-wkm96xzd3Cp_YF-283">
          <mxGeometry y="53" width="250" height="27" as="geometry" />
        </mxCell>
        <mxCell id="rIWqH-wkm96xzd3Cp_YF-293" value="Calor extremo" style="connectable=0;recursiveResize=0;strokeColor=inherit;fillColor=none;align=center;whiteSpace=wrap;html=1;" vertex="1" parent="rIWqH-wkm96xzd3Cp_YF-292">
          <mxGeometry width="110" height="27" as="geometry">
            <mxRectangle width="110" height="27" as="alternateBounds" />
          </mxGeometry>
        </mxCell>
        <mxCell id="rIWqH-wkm96xzd3Cp_YF-294" value="" style="connectable=0;recursiveResize=0;strokeColor=inherit;fillColor=none;align=center;whiteSpace=wrap;html=1;" vertex="1" parent="rIWqH-wkm96xzd3Cp_YF-292">
          <mxGeometry x="110" width="56" height="27" as="geometry">
            <mxRectangle width="56" height="27" as="alternateBounds" />
          </mxGeometry>
        </mxCell>
        <mxCell id="rIWqH-wkm96xzd3Cp_YF-295" value="" style="connectable=0;recursiveResize=0;strokeColor=inherit;fillColor=none;align=center;whiteSpace=wrap;html=1;" vertex="1" parent="rIWqH-wkm96xzd3Cp_YF-292">
          <mxGeometry x="166" width="84" height="27" as="geometry">
            <mxRectangle width="84" height="27" as="alternateBounds" />
          </mxGeometry>
        </mxCell>
        <mxCell id="rIWqH-wkm96xzd3Cp_YF-335" style="shape=tableRow;horizontal=0;startSize=0;swimlaneHead=0;swimlaneBody=0;top=0;left=0;bottom=0;right=0;dropTarget=0;collapsible=0;recursiveResize=0;expand=0;fontStyle=0;fillColor=none;strokeColor=inherit;" vertex="1" parent="rIWqH-wkm96xzd3Cp_YF-283">
          <mxGeometry y="80" width="250" height="27" as="geometry" />
        </mxCell>
        <mxCell id="rIWqH-wkm96xzd3Cp_YF-336" value="Tormenta de arena" style="connectable=0;recursiveResize=0;strokeColor=inherit;fillColor=none;align=center;whiteSpace=wrap;html=1;" vertex="1" parent="rIWqH-wkm96xzd3Cp_YF-335">
          <mxGeometry width="110" height="27" as="geometry">
            <mxRectangle width="110" height="27" as="alternateBounds" />
          </mxGeometry>
        </mxCell>
        <mxCell id="rIWqH-wkm96xzd3Cp_YF-337" style="connectable=0;recursiveResize=0;strokeColor=inherit;fillColor=none;align=center;whiteSpace=wrap;html=1;" vertex="1" parent="rIWqH-wkm96xzd3Cp_YF-335">
          <mxGeometry x="110" width="56" height="27" as="geometry">
            <mxRectangle width="56" height="27" as="alternateBounds" />
          </mxGeometry>
        </mxCell>
        <mxCell id="rIWqH-wkm96xzd3Cp_YF-338" style="connectable=0;recursiveResize=0;strokeColor=inherit;fillColor=none;align=center;whiteSpace=wrap;html=1;" vertex="1" parent="rIWqH-wkm96xzd3Cp_YF-335">
          <mxGeometry x="166" width="84" height="27" as="geometry">
            <mxRectangle width="84" height="27" as="alternateBounds" />
          </mxGeometry>
        </mxCell>
        <mxCell id="rIWqH-wkm96xzd3Cp_YF-339" style="shape=tableRow;horizontal=0;startSize=0;swimlaneHead=0;swimlaneBody=0;top=0;left=0;bottom=0;right=0;dropTarget=0;collapsible=0;recursiveResize=0;expand=0;fontStyle=0;fillColor=none;strokeColor=inherit;" vertex="1" parent="rIWqH-wkm96xzd3Cp_YF-283">
          <mxGeometry y="107" width="250" height="27" as="geometry" />
        </mxCell>
        <mxCell id="rIWqH-wkm96xzd3Cp_YF-340" value="Frío extremo" style="connectable=0;recursiveResize=0;strokeColor=inherit;fillColor=none;align=center;whiteSpace=wrap;html=1;" vertex="1" parent="rIWqH-wkm96xzd3Cp_YF-339">
          <mxGeometry width="110" height="27" as="geometry">
            <mxRectangle width="110" height="27" as="alternateBounds" />
          </mxGeometry>
        </mxCell>
        <mxCell id="rIWqH-wkm96xzd3Cp_YF-341" style="connectable=0;recursiveResize=0;strokeColor=inherit;fillColor=none;align=center;whiteSpace=wrap;html=1;" vertex="1" parent="rIWqH-wkm96xzd3Cp_YF-339">
          <mxGeometry x="110" width="56" height="27" as="geometry">
            <mxRectangle width="56" height="27" as="alternateBounds" />
          </mxGeometry>
        </mxCell>
        <mxCell id="rIWqH-wkm96xzd3Cp_YF-342" style="connectable=0;recursiveResize=0;strokeColor=inherit;fillColor=none;align=center;whiteSpace=wrap;html=1;" vertex="1" parent="rIWqH-wkm96xzd3Cp_YF-339">
          <mxGeometry x="166" width="84" height="27" as="geometry">
            <mxRectangle width="84" height="27" as="alternateBounds" />
          </mxGeometry>
        </mxCell>
        <mxCell id="rIWqH-wkm96xzd3Cp_YF-296" value="Climas" style="text;html=1;align=center;verticalAlign=middle;whiteSpace=wrap;rounded=0;" vertex="1" parent="1">
          <mxGeometry x="970" y="800" width="60" height="30" as="geometry" />
        </mxCell>
        <mxCell id="rIWqH-wkm96xzd3Cp_YF-297" value="" style="childLayout=tableLayout;recursiveResize=0;shadow=0;fillColor=none;" vertex="1" parent="1">
          <mxGeometry x="1050" y="930" width="250" height="134" as="geometry" />
        </mxCell>
        <mxCell id="rIWqH-wkm96xzd3Cp_YF-298" value="" style="shape=tableRow;horizontal=0;startSize=0;swimlaneHead=0;swimlaneBody=0;top=0;left=0;bottom=0;right=0;dropTarget=0;collapsible=0;recursiveResize=0;expand=0;fontStyle=0;fillColor=none;strokeColor=inherit;" vertex="1" parent="rIWqH-wkm96xzd3Cp_YF-297">
          <mxGeometry width="250" height="27" as="geometry" />
        </mxCell>
        <mxCell id="rIWqH-wkm96xzd3Cp_YF-299" value="Nombre" style="connectable=0;recursiveResize=0;strokeColor=inherit;fillColor=none;align=center;whiteSpace=wrap;html=1;" vertex="1" parent="rIWqH-wkm96xzd3Cp_YF-298">
          <mxGeometry width="76" height="27" as="geometry">
            <mxRectangle width="76" height="27" as="alternateBounds" />
          </mxGeometry>
        </mxCell>
        <mxCell id="rIWqH-wkm96xzd3Cp_YF-300" value="Buff" style="connectable=0;recursiveResize=0;strokeColor=inherit;fillColor=none;align=center;whiteSpace=wrap;html=1;" vertex="1" parent="rIWqH-wkm96xzd3Cp_YF-298">
          <mxGeometry x="76" width="90" height="27" as="geometry">
            <mxRectangle width="90" height="27" as="alternateBounds" />
          </mxGeometry>
        </mxCell>
        <mxCell id="rIWqH-wkm96xzd3Cp_YF-301" value="Penalización" style="connectable=0;recursiveResize=0;strokeColor=inherit;fillColor=none;align=center;whiteSpace=wrap;html=1;" vertex="1" parent="rIWqH-wkm96xzd3Cp_YF-298">
          <mxGeometry x="166" width="84" height="27" as="geometry">
            <mxRectangle width="84" height="27" as="alternateBounds" />
          </mxGeometry>
        </mxCell>
        <mxCell id="rIWqH-wkm96xzd3Cp_YF-302" style="shape=tableRow;horizontal=0;startSize=0;swimlaneHead=0;swimlaneBody=0;top=0;left=0;bottom=0;right=0;dropTarget=0;collapsible=0;recursiveResize=0;expand=0;fontStyle=0;fillColor=none;strokeColor=inherit;" vertex="1" parent="rIWqH-wkm96xzd3Cp_YF-297">
          <mxGeometry y="27" width="250" height="26" as="geometry" />
        </mxCell>
        <mxCell id="rIWqH-wkm96xzd3Cp_YF-303" value="Mañana" style="connectable=0;recursiveResize=0;strokeColor=inherit;fillColor=none;align=center;whiteSpace=wrap;html=1;" vertex="1" parent="rIWqH-wkm96xzd3Cp_YF-302">
          <mxGeometry width="76" height="26" as="geometry">
            <mxRectangle width="76" height="26" as="alternateBounds" />
          </mxGeometry>
        </mxCell>
        <mxCell id="rIWqH-wkm96xzd3Cp_YF-304" value="" style="connectable=0;recursiveResize=0;strokeColor=inherit;fillColor=none;align=center;whiteSpace=wrap;html=1;" vertex="1" parent="rIWqH-wkm96xzd3Cp_YF-302">
          <mxGeometry x="76" width="90" height="26" as="geometry">
            <mxRectangle width="90" height="26" as="alternateBounds" />
          </mxGeometry>
        </mxCell>
        <mxCell id="rIWqH-wkm96xzd3Cp_YF-305" value="" style="connectable=0;recursiveResize=0;strokeColor=inherit;fillColor=none;align=center;whiteSpace=wrap;html=1;" vertex="1" parent="rIWqH-wkm96xzd3Cp_YF-302">
          <mxGeometry x="166" width="84" height="26" as="geometry">
            <mxRectangle width="84" height="26" as="alternateBounds" />
          </mxGeometry>
        </mxCell>
        <mxCell id="rIWqH-wkm96xzd3Cp_YF-306" style="shape=tableRow;horizontal=0;startSize=0;swimlaneHead=0;swimlaneBody=0;top=0;left=0;bottom=0;right=0;dropTarget=0;collapsible=0;recursiveResize=0;expand=0;fontStyle=0;fillColor=none;strokeColor=inherit;" vertex="1" parent="rIWqH-wkm96xzd3Cp_YF-297">
          <mxGeometry y="53" width="250" height="27" as="geometry" />
        </mxCell>
        <mxCell id="rIWqH-wkm96xzd3Cp_YF-307" value="Mediodía" style="connectable=0;recursiveResize=0;strokeColor=inherit;fillColor=none;align=center;whiteSpace=wrap;html=1;" vertex="1" parent="rIWqH-wkm96xzd3Cp_YF-306">
          <mxGeometry width="76" height="27" as="geometry">
            <mxRectangle width="76" height="27" as="alternateBounds" />
          </mxGeometry>
        </mxCell>
        <mxCell id="rIWqH-wkm96xzd3Cp_YF-308" value="" style="connectable=0;recursiveResize=0;strokeColor=inherit;fillColor=none;align=center;whiteSpace=wrap;html=1;" vertex="1" parent="rIWqH-wkm96xzd3Cp_YF-306">
          <mxGeometry x="76" width="90" height="27" as="geometry">
            <mxRectangle width="90" height="27" as="alternateBounds" />
          </mxGeometry>
        </mxCell>
        <mxCell id="rIWqH-wkm96xzd3Cp_YF-309" value="" style="connectable=0;recursiveResize=0;strokeColor=inherit;fillColor=none;align=center;whiteSpace=wrap;html=1;" vertex="1" parent="rIWqH-wkm96xzd3Cp_YF-306">
          <mxGeometry x="166" width="84" height="27" as="geometry">
            <mxRectangle width="84" height="27" as="alternateBounds" />
          </mxGeometry>
        </mxCell>
        <mxCell id="rIWqH-wkm96xzd3Cp_YF-315" style="shape=tableRow;horizontal=0;startSize=0;swimlaneHead=0;swimlaneBody=0;top=0;left=0;bottom=0;right=0;dropTarget=0;collapsible=0;recursiveResize=0;expand=0;fontStyle=0;fillColor=none;strokeColor=inherit;" vertex="1" parent="rIWqH-wkm96xzd3Cp_YF-297">
          <mxGeometry y="80" width="250" height="27" as="geometry" />
        </mxCell>
        <mxCell id="rIWqH-wkm96xzd3Cp_YF-316" value="Tarde" style="connectable=0;recursiveResize=0;strokeColor=inherit;fillColor=none;align=center;whiteSpace=wrap;html=1;" vertex="1" parent="rIWqH-wkm96xzd3Cp_YF-315">
          <mxGeometry width="76" height="27" as="geometry">
            <mxRectangle width="76" height="27" as="alternateBounds" />
          </mxGeometry>
        </mxCell>
        <mxCell id="rIWqH-wkm96xzd3Cp_YF-317" style="connectable=0;recursiveResize=0;strokeColor=inherit;fillColor=none;align=center;whiteSpace=wrap;html=1;" vertex="1" parent="rIWqH-wkm96xzd3Cp_YF-315">
          <mxGeometry x="76" width="90" height="27" as="geometry">
            <mxRectangle width="90" height="27" as="alternateBounds" />
          </mxGeometry>
        </mxCell>
        <mxCell id="rIWqH-wkm96xzd3Cp_YF-318" style="connectable=0;recursiveResize=0;strokeColor=inherit;fillColor=none;align=center;whiteSpace=wrap;html=1;" vertex="1" parent="rIWqH-wkm96xzd3Cp_YF-315">
          <mxGeometry x="166" width="84" height="27" as="geometry">
            <mxRectangle width="84" height="27" as="alternateBounds" />
          </mxGeometry>
        </mxCell>
        <mxCell id="rIWqH-wkm96xzd3Cp_YF-311" style="shape=tableRow;horizontal=0;startSize=0;swimlaneHead=0;swimlaneBody=0;top=0;left=0;bottom=0;right=0;dropTarget=0;collapsible=0;recursiveResize=0;expand=0;fontStyle=0;fillColor=none;strokeColor=inherit;" vertex="1" parent="rIWqH-wkm96xzd3Cp_YF-297">
          <mxGeometry y="107" width="250" height="27" as="geometry" />
        </mxCell>
        <mxCell id="rIWqH-wkm96xzd3Cp_YF-312" value="Noche" style="connectable=0;recursiveResize=0;strokeColor=inherit;fillColor=none;align=center;whiteSpace=wrap;html=1;" vertex="1" parent="rIWqH-wkm96xzd3Cp_YF-311">
          <mxGeometry width="76" height="27" as="geometry">
            <mxRectangle width="76" height="27" as="alternateBounds" />
          </mxGeometry>
        </mxCell>
        <mxCell id="rIWqH-wkm96xzd3Cp_YF-313" style="connectable=0;recursiveResize=0;strokeColor=inherit;fillColor=none;align=center;whiteSpace=wrap;html=1;" vertex="1" parent="rIWqH-wkm96xzd3Cp_YF-311">
          <mxGeometry x="76" width="90" height="27" as="geometry">
            <mxRectangle width="90" height="27" as="alternateBounds" />
          </mxGeometry>
        </mxCell>
        <mxCell id="rIWqH-wkm96xzd3Cp_YF-314" style="connectable=0;recursiveResize=0;strokeColor=inherit;fillColor=none;align=center;whiteSpace=wrap;html=1;" vertex="1" parent="rIWqH-wkm96xzd3Cp_YF-311">
          <mxGeometry x="166" width="84" height="27" as="geometry">
            <mxRectangle width="84" height="27" as="alternateBounds" />
          </mxGeometry>
        </mxCell>
        <mxCell id="rIWqH-wkm96xzd3Cp_YF-310" value="Horas del día" style="text;html=1;align=center;verticalAlign=middle;whiteSpace=wrap;rounded=0;" vertex="1" parent="1">
          <mxGeometry x="960" y="970" width="60" height="30" as="geometry" />
        </mxCell>
      </root>
    </mxGraphModel>
  </diagram>
</mxfile>
